<svg width="266" height="60" viewBox="0 0 266 60" fill="none" xmlns="http://www.w3.org/2000/svg">
<path d="M17.9724 31.0398H12.8721V36.2858C12.8721 37.0954 13.0664 37.6945 13.455 38.0831C13.8436 38.4717 14.4103 38.6983 15.1551 38.7631C15.9323 38.7955 16.8714 38.7793 17.9724 38.7145V46.7778C12.8883 47.4903 9.26147 47.0531 7.09182 45.4663C4.95456 43.8796 3.88593 40.9813 3.88593 36.7716V31.0398H0.485741V22.4908H3.88593V18.362L12.8721 15.6904V22.4908H17.9724V31.0398ZM36.6496 21.8107C39.3049 21.8107 41.426 22.7336 43.0128 24.5795C44.6319 26.3929 45.4415 29.113 45.4415 32.7399V46.7778H36.4553V33.7114C36.4553 31.5417 35.4514 30.4569 33.4437 30.4569C32.375 30.4569 31.5493 30.7969 30.9664 31.477C30.4159 32.157 30.1406 33.0961 30.1406 34.2943V46.7778H21.1544V12.7759H30.1406V24.8709C31.6302 22.8308 33.7999 21.8107 36.6496 21.8107ZM57.0139 37.6945C57.7911 39.3136 59.4426 40.1232 61.9684 40.1232C63.458 40.1232 64.8343 39.6051 66.0972 38.5688L71.9747 43.5234C69.546 46.1464 66.1134 47.4579 61.677 47.4579C57.532 47.4579 54.1966 46.2597 51.6707 43.8634C49.1772 41.4347 47.9305 38.3907 47.9305 34.7314C47.9305 31.0398 49.1449 27.9635 51.5736 25.5024C54.0347 23.0413 57.1272 21.8107 60.8512 21.8107C64.5429 21.8107 67.5706 23.0251 69.9346 25.4538C72.3309 27.8501 73.5291 30.8779 73.5291 34.5372C73.5291 35.6058 73.3995 36.6582 73.1405 37.6945H57.0139ZM56.8681 31.9142H65.0286C64.4781 29.9712 63.1666 28.9997 61.0941 28.9997C58.9892 28.9997 57.5806 29.9712 56.8681 31.9142ZM104.839 21.8107C107.656 21.8107 109.858 22.7013 111.445 24.4823C113.031 26.231 113.825 28.7406 113.825 32.0113V46.7778H104.839V33.2257C104.839 31.3798 104.013 30.4569 102.361 30.4569C100.451 30.4569 99.4954 31.6551 99.4954 34.0514V46.7778H90.5091V33.2257C90.5091 31.3798 89.6834 30.4569 88.0319 30.4569C86.1213 30.4569 85.166 31.6551 85.166 34.0514V46.7778H76.1798V22.4908H85.166V24.7738C86.7527 22.7984 88.9548 21.8107 91.7721 21.8107C94.557 21.8107 96.5809 22.8146 97.8438 24.8223C99.5925 22.8146 101.924 21.8107 104.839 21.8107ZM125.369 37.6945C126.146 39.3136 127.797 40.1232 130.323 40.1232C131.813 40.1232 133.189 39.6051 134.452 38.5688L140.329 43.5234C137.901 46.1464 134.468 47.4579 130.032 47.4579C125.887 47.4579 122.551 46.2597 120.026 43.8634C117.532 41.4347 116.285 38.3907 116.285 34.7314C116.285 31.0398 117.5 27.9635 119.928 25.5024C122.389 23.0413 125.482 21.8107 129.206 21.8107C132.898 21.8107 135.925 23.0251 138.289 25.4538C140.686 27.8501 141.884 30.8779 141.884 34.5372C141.884 35.6058 141.754 36.6582 141.495 37.6945H125.369ZM125.223 31.9142H133.383C132.833 29.9712 131.521 28.9997 129.449 28.9997C127.344 28.9997 125.935 29.9712 125.223 31.9142Z" fill="white"/>
<path d="M160.73 22.4908V20.9614H159.613L159.273 22.0246L160.73 22.4908ZM170.687 22.4908L172.117 23.034L172.905 20.9614H170.687V22.4908ZM161.458 46.7778V48.3072H162.513L162.888 47.3211L161.458 46.7778ZM152.229 46.7778L150.799 47.3211L151.174 48.3072H152.229V46.7778ZM143 22.4908V20.9614H140.783L141.57 23.034L143 22.4908ZM152.958 22.4908L154.414 22.0246L154.074 20.9614H152.958V22.4908ZM156.844 34.6343L155.387 35.1004L156.844 39.6525L158.3 35.1004L156.844 34.6343ZM160.73 24.0202H170.687V20.9614H160.73V24.0202ZM169.258 21.9475L160.028 46.2346L162.888 47.3211L172.117 23.034L169.258 21.9475ZM161.458 45.2484H152.229V48.3072H161.458V45.2484ZM153.659 46.2346L144.43 21.9475L141.57 23.034L150.799 47.3211L153.659 46.2346ZM143 24.0202H152.958V20.9614H143V24.0202ZM151.501 22.9569L155.387 35.1004L158.3 34.1682L154.414 22.0246L151.501 22.9569ZM158.3 35.1004L162.186 22.9569L159.273 22.0246L155.387 34.1682L158.3 35.1004ZM179.427 37.6945V36.1651H176.996L178.048 38.3563L179.427 37.6945ZM188.51 38.5688L189.496 37.3994L188.523 36.5796L187.54 37.3865L188.51 38.5688ZM194.388 43.5234L195.51 44.5625L196.598 43.3867L195.373 42.354L194.388 43.5234ZM174.084 43.8634L173.017 44.959L173.024 44.966L173.031 44.9729L174.084 43.8634ZM173.986 25.5024L172.905 24.4209L172.898 24.4281L173.986 25.5024ZM192.348 25.4538L191.252 26.5205L191.259 26.5279L191.266 26.5352L192.348 25.4538ZM195.553 37.6945V39.2239H196.748L197.037 38.0654L195.553 37.6945ZM179.281 31.9142L177.845 31.3876L177.091 33.4436H179.281V31.9142ZM187.442 31.9142V33.4436H189.464L188.913 31.4972L187.442 31.9142ZM178.048 38.3563C179.181 40.7159 181.543 41.6526 184.381 41.6526V38.5938C182.168 38.5938 181.227 37.9113 180.806 37.0326L178.048 38.3563ZM184.381 41.6526C186.26 41.6526 187.972 40.9886 189.48 39.7512L187.54 37.3865C186.522 38.2215 185.482 38.5938 184.381 38.5938V41.6526ZM187.524 39.7382L193.402 44.6927L195.373 42.354L189.496 37.3994L187.524 39.7382ZM193.265 42.4843C191.193 44.7221 188.21 45.9285 184.09 45.9285V48.9873C188.842 48.9873 192.725 47.5706 195.51 44.5625L193.265 42.4843ZM184.09 45.9285C180.257 45.9285 177.325 44.8305 175.136 42.7539L173.031 44.9729C175.894 47.6889 179.633 48.9873 184.09 48.9873V45.9285ZM175.151 42.7678C172.969 40.6431 171.873 38.0017 171.873 34.7314H168.814C168.814 38.7797 170.211 42.2263 173.017 44.959L175.151 42.7678ZM171.873 34.7314C171.873 31.4119 172.949 28.7308 175.075 26.5766L172.898 24.4281C170.166 27.1961 168.814 30.6678 168.814 34.7314H171.873ZM175.068 26.5838C177.221 24.431 179.914 23.3401 183.264 23.3401V20.2813C179.166 20.2813 175.674 21.6515 172.905 24.4209L175.068 26.5838ZM183.264 23.3401C186.584 23.3401 189.203 24.4156 191.252 26.5205L193.443 24.387C190.764 21.6346 187.328 20.2813 183.264 20.2813V23.3401ZM191.266 26.5352C193.351 28.6204 194.413 31.2478 194.413 34.5372H197.471C197.471 30.508 196.136 27.0798 193.429 24.3723L191.266 26.5352ZM194.413 34.5372C194.413 35.4808 194.298 36.4087 194.07 37.3235L197.037 38.0654C197.327 36.9078 197.471 35.7308 197.471 34.5372H194.413ZM195.553 36.1651H179.427V39.2239H195.553V36.1651ZM179.281 33.4436H187.442V30.3847H179.281V33.4436ZM188.913 31.4972C188.568 30.2794 187.942 29.2302 186.955 28.4993C185.973 27.7714 184.782 27.4703 183.507 27.4703V30.5291C184.305 30.5291 184.806 30.7138 185.135 30.9573C185.46 31.1979 185.765 31.606 185.97 32.3311L188.913 31.4972ZM183.507 27.4703C182.217 27.4703 181.017 27.7705 180.004 28.4693C178.988 29.1695 178.287 30.1825 177.845 31.3876L180.717 32.4407C180.988 31.7028 181.347 31.2586 181.74 30.9873C182.136 30.7146 182.693 30.5291 183.507 30.5291V27.4703ZM207.579 27.2025H206.049L209.054 27.6073L207.579 27.2025ZM210.25 23.3651L211.113 24.6281H211.113L210.25 23.3651ZM214.865 22.005H216.394V20.4756H214.865V22.005ZM214.865 31.7199L214.663 33.2359L216.394 33.4667V31.7199H214.865ZM209.765 32.8856L210.632 34.1451L210.642 34.1386L210.651 34.132L209.765 32.8856ZM207.579 46.7778V48.3072H209.108V46.7778H207.579ZM198.593 46.7778H197.063V48.3072H198.593V46.7778ZM198.593 22.4908V20.9614H197.063V22.4908H198.593ZM207.579 22.4908H209.108V20.9614H207.579V22.4908ZM209.054 27.6073C209.418 26.2807 210.105 25.3164 211.113 24.6281L209.388 22.1021C207.74 23.2272 206.647 24.8212 206.104 26.7976L209.054 27.6073ZM211.113 24.6281C212.164 23.9102 213.396 23.5344 214.865 23.5344V20.4756C212.837 20.4756 210.992 21.0065 209.388 22.1021L211.113 24.6281ZM213.336 22.005V31.7199H216.394V22.005H213.336ZM215.067 30.2039C212.781 29.899 210.683 30.3561 208.878 31.6392L210.651 34.132C211.761 33.3427 213.064 33.0226 214.663 33.2359L215.067 30.2039ZM208.897 31.6262C206.917 32.9904 206.049 35.1539 206.049 37.743H209.108C209.108 35.8634 209.698 34.7886 210.632 34.1451L208.897 31.6262ZM206.049 37.743V46.7778H209.108V37.743H206.049ZM207.579 45.2484H198.593V48.3072H207.579V45.2484ZM200.122 46.7778V22.4908H197.063V46.7778H200.122ZM198.593 24.0202H207.579V20.9614H198.593V24.0202ZM206.049 22.4908V27.2025H209.108V22.4908H206.049ZM226.377 30.5541L225.823 31.9795L225.836 31.9845L225.848 31.9892L226.377 30.5541ZM228.66 31.0884L228.444 32.6024L228.47 32.6062L228.497 32.6091L228.66 31.0884ZM231.575 31.7199L231.118 33.1796L231.575 31.7199ZM234.489 32.9342L235.211 31.5861L234.489 32.9342ZM236.723 35.2658L235.381 35.9981L235.394 36.0226L235.408 36.0466L236.723 35.2658ZM236.578 43.1348L235.273 42.3373L235.264 42.3506L235.257 42.3641L236.578 43.1348ZM233.858 45.7578L234.557 47.1179L233.858 45.7578ZM230.36 47.0207L230.037 45.5258L230.013 45.531L229.989 45.537L230.36 47.0207ZM215.351 41.6775L214.726 40.2814L213.332 40.9048L213.954 42.2998L215.351 41.6775ZM223.171 38.1802L224.604 37.6463L224.035 36.1185L222.547 36.7841L223.171 38.1802ZM227.057 38.5688L227.523 37.1122L227.057 38.5688ZM224.143 37.7916L223.762 39.2728L223.782 39.278L223.802 39.2826L224.143 37.7916ZM220.694 36.6744L220.091 38.0802L220.115 38.0904L220.14 38.0998L220.694 36.6744ZM217.779 34.2943L216.547 35.2003L217.779 34.2943ZM219.577 23.9966L218.688 22.752L218.678 22.7588L219.577 23.9966ZM237.161 27.9796L237.678 29.4189L239.191 28.8748L238.572 27.3906L237.161 27.9796ZM229.729 30.6512L228.323 31.2537L228.89 32.5778L230.246 32.0905L229.729 30.6512ZM223.973 29.6312C223.973 30.9951 225.057 31.6819 225.823 31.9795L226.931 29.1287C226.759 29.0615 226.766 29.0321 226.832 29.1015C226.87 29.1425 226.925 29.2136 226.968 29.3169C227.012 29.4225 227.032 29.5317 227.032 29.6312H223.973ZM225.848 31.9892C226.596 32.2645 227.469 32.4632 228.444 32.6024L228.876 29.5744C228.038 29.4545 227.389 29.297 226.906 29.119L225.848 31.9892ZM228.497 32.6091C229.288 32.6938 230.16 32.8802 231.118 33.1796L232.031 30.2601C230.916 29.9118 229.846 29.6773 228.823 29.5677L228.497 32.6091ZM231.118 33.1796C232.068 33.4763 232.95 33.8446 233.767 34.2824L235.211 31.5861C234.215 31.0524 233.154 30.6111 232.031 30.2601L231.118 33.1796ZM233.767 34.2824C234.366 34.6035 234.914 35.142 235.381 35.9981L238.066 34.5334C237.367 33.2523 236.425 32.2364 235.211 31.5861L233.767 34.2824ZM235.408 36.0466C235.854 36.7967 236.117 37.7753 236.117 39.0545H239.176C239.176 37.3546 238.824 35.8074 238.038 34.4849L235.408 36.0466ZM236.117 39.0545C236.117 40.3671 235.819 41.4433 235.273 42.3373L237.883 43.9323C238.761 42.4947 239.176 40.8507 239.176 39.0545H236.117ZM235.257 42.3641C234.714 43.2938 234.017 43.9561 233.158 44.3977L234.557 47.1179C235.965 46.3937 237.081 45.3073 237.899 43.9054L235.257 42.3641ZM233.158 44.3977C232.139 44.9218 231.099 45.2962 230.037 45.5258L230.683 48.5156C232.017 48.2271 233.309 47.7595 234.557 47.1179L233.158 44.3977ZM229.989 45.537C228.951 45.7966 227.861 45.9285 226.717 45.9285V48.9873C228.099 48.9873 229.438 48.8277 230.731 48.5045L229.989 45.537ZM226.717 45.9285C221.183 45.9285 218.123 44.1424 216.748 41.0553L213.954 42.2998C216.011 46.9198 220.529 48.9873 226.717 48.9873V45.9285ZM215.975 43.0737L223.796 39.5764L222.547 36.7841L214.726 40.2814L215.975 43.0737ZM221.738 38.7141C222.126 39.7544 222.727 40.6512 223.603 41.2803C224.484 41.9133 225.52 42.1869 226.62 42.1869V39.1281C226.036 39.1281 225.655 38.9888 225.387 38.796C225.113 38.5993 224.832 38.2575 224.604 37.6463L221.738 38.7141ZM226.62 42.1869C227.286 42.1869 228.05 42.088 228.689 41.6744C229.443 41.1866 229.801 40.4104 229.801 39.5889H226.742C226.742 39.5683 226.747 39.4757 226.809 39.356C226.873 39.2309 226.962 39.1487 227.028 39.1063C227.083 39.0705 227.095 39.0794 227.02 39.0957C226.946 39.1117 226.818 39.1281 226.62 39.1281V42.1869ZM229.801 39.5889C229.801 38.8146 229.404 38.227 228.952 37.847C228.532 37.4949 228.016 37.2699 227.523 37.1122L226.591 40.0255C226.739 40.0727 226.843 40.1157 226.912 40.1499C226.983 40.1848 226.999 40.2015 226.984 40.1892C226.968 40.1759 226.905 40.1188 226.845 40.0065C226.781 39.886 226.742 39.7402 226.742 39.5889H229.801ZM227.523 37.1122C226.661 36.8361 225.645 36.5661 224.483 36.3007L223.802 39.2826C224.907 39.5352 225.835 39.7834 226.591 40.0255L227.523 37.1122ZM224.524 36.3104C223.453 36.0351 222.361 35.6818 221.248 35.249L220.14 38.0998C221.358 38.5737 222.566 38.9653 223.762 39.2728L224.524 36.3104ZM221.296 35.2687C220.44 34.9017 219.678 34.294 219.012 33.3883L216.547 35.2003C217.5 36.4966 218.681 37.4756 220.091 38.0802L221.296 35.2687ZM219.012 33.3883C218.433 32.6009 218.095 31.5606 218.095 30.1655H215.036C215.036 32.0734 215.507 33.7857 216.547 35.2003L219.012 33.3883ZM218.095 30.1655C218.095 27.9596 218.895 26.3809 220.475 25.2343L218.678 22.7588C216.243 24.5267 215.036 27.0606 215.036 30.1655H218.095ZM220.466 25.2411C222.231 23.9804 224.263 23.3401 226.62 23.3401V20.2813C223.666 20.2813 221.003 21.0982 218.688 22.752L220.466 25.2411ZM226.62 23.3401C229.084 23.3401 231.004 23.8176 232.466 24.6729C233.908 25.5172 235.006 26.7882 235.749 28.5687L238.572 27.3906C237.599 25.0584 236.082 23.245 234.011 22.033C231.959 20.832 229.466 20.2813 226.62 20.2813V23.3401ZM236.643 26.5404L229.211 29.212L230.246 32.0905L237.678 29.4189L236.643 26.5404ZM231.134 30.0488C230.769 29.1958 230.253 28.4402 229.529 27.8976C228.788 27.3417 227.925 27.0817 227.009 27.0817V30.1405C227.323 30.1405 227.528 30.2205 227.694 30.3447C227.877 30.4821 228.106 30.7466 228.323 31.2537L231.134 30.0488ZM227.009 27.0817C226.382 27.0817 225.643 27.1791 225.021 27.5999C224.294 28.0927 223.973 28.856 223.973 29.6312H227.032C227.032 29.6498 227.028 29.7402 226.969 29.8601C226.907 29.9869 226.816 30.0786 226.737 30.1324C226.668 30.1792 226.636 30.1782 226.687 30.1667C226.737 30.1553 226.839 30.1405 227.009 30.1405V27.0817ZM248.351 37.6945V36.1651H245.92L246.972 38.3563L248.351 37.6945ZM257.434 38.5688L258.42 37.3994L257.447 36.5796L256.464 37.3865L257.434 38.5688ZM263.312 43.5234L264.434 44.5625L265.522 43.3867L264.297 42.354L263.312 43.5234ZM243.008 43.8634L241.941 44.959L241.948 44.966L241.955 44.9729L243.008 43.8634ZM242.911 25.5024L241.829 24.4209L241.822 24.4281L242.911 25.5024ZM261.272 25.4538L260.176 26.5205L260.183 26.5279L260.19 26.5352L261.272 25.4538ZM264.477 37.6945V39.2239H265.672L265.961 38.0654L264.477 37.6945ZM248.205 31.9142L246.769 31.3876L246.015 33.4436H248.205V31.9142ZM256.366 31.9142V33.4436H258.388L257.837 31.4972L256.366 31.9142ZM246.972 38.3563C248.105 40.7159 250.467 41.6526 253.305 41.6526V38.5938C251.092 38.5938 250.151 37.9113 249.73 37.0326L246.972 38.3563ZM253.305 41.6526C255.184 41.6526 256.896 40.9886 258.404 39.7512L256.464 37.3865C255.446 38.2215 254.406 38.5938 253.305 38.5938V41.6526ZM256.448 39.7382L262.326 44.6927L264.297 42.354L258.42 37.3994L256.448 39.7382ZM262.189 42.4843C260.117 44.7221 257.134 45.9285 253.014 45.9285V48.9873C257.766 48.9873 261.649 47.5706 264.434 44.5625L262.189 42.4843ZM253.014 45.9285C249.181 45.9285 246.249 44.8305 244.06 42.7539L241.955 44.9729C244.818 47.6889 248.557 48.9873 253.014 48.9873V45.9285ZM244.075 42.7678C241.893 40.6431 240.797 38.0017 240.797 34.7314H237.738C237.738 38.7797 239.135 42.2263 241.941 44.959L244.075 42.7678ZM240.797 34.7314C240.797 31.4119 241.873 28.7308 243.999 26.5766L241.822 24.4281C239.09 27.1961 237.738 30.6678 237.738 34.7314H240.797ZM243.992 26.5838C246.145 24.431 248.838 23.3401 252.188 23.3401V20.2813C248.09 20.2813 244.598 21.6515 241.829 24.4209L243.992 26.5838ZM252.188 23.3401C255.508 23.3401 258.127 24.4156 260.176 26.5205L262.368 24.387C259.688 21.6346 256.252 20.2813 252.188 20.2813V23.3401ZM260.19 26.5352C262.275 28.6204 263.337 31.2478 263.337 34.5372H266.395C266.395 30.508 265.06 27.0798 262.353 24.3723L260.19 26.5352ZM263.337 34.5372C263.337 35.4808 263.222 36.4087 262.994 37.3235L265.961 38.0654C266.251 36.9078 266.395 35.7308 266.395 34.5372H263.337ZM264.477 36.1651H248.351V39.2239H264.477V36.1651ZM248.205 33.4436H256.366V30.3847H248.205V33.4436ZM257.837 31.4972C257.492 30.2794 256.866 29.2302 255.879 28.4993C254.897 27.7714 253.706 27.4703 252.431 27.4703V30.5291C253.229 30.5291 253.73 30.7138 254.059 30.9573C254.384 31.1979 254.689 31.606 254.894 32.3311L257.837 31.4972ZM252.431 27.4703C251.141 27.4703 249.941 27.7705 248.928 28.4693C247.912 29.1695 247.211 30.1825 246.769 31.3876L249.641 32.4407C249.912 31.7028 250.271 31.2586 250.664 30.9873C251.06 30.7146 251.617 30.5291 252.431 30.5291V27.4703Z" fill="white"/>
</svg>
