<svg width="96" height="59" viewBox="0 0 96 59" fill="none" xmlns="http://www.w3.org/2000/svg">
<g clip-path="url(#clip0_8_7274)">
<path d="M27.6937 22.0705C27.6937 23.2464 27.8175 24.1999 28.0342 24.8991C28.2818 25.5983 28.5913 26.3611 29.0246 27.1874C29.1794 27.4416 29.2413 27.6959 29.2413 27.9184C29.2413 28.2362 29.0556 28.554 28.6532 28.8718L26.7033 30.2067C26.4247 30.3974 26.1462 30.4927 25.8986 30.4927C25.589 30.4927 25.2795 30.3338 24.97 30.0478C24.5367 29.571 24.1653 29.0625 23.8558 28.554C23.5463 28.0137 23.2368 27.4099 22.8963 26.6789C20.4821 29.6028 17.4489 31.0648 13.7967 31.0648C11.1968 31.0648 9.12303 30.302 7.60643 28.7765C6.08982 27.251 5.31604 25.2169 5.31604 22.6744C5.31604 19.9729 6.24457 17.7799 8.13259 16.1273C10.0206 14.4746 12.5277 13.6483 15.7156 13.6483C16.768 13.6483 17.8513 13.7436 18.9964 13.9025C20.1416 14.0615 21.3178 14.3157 22.5558 14.6017V12.2817C22.5558 9.86624 22.0606 8.18179 21.1011 7.19655C20.1107 6.21131 18.4393 5.73458 16.0561 5.73458C14.9728 5.73458 13.8586 5.86171 12.7134 6.14775C11.5682 6.43379 10.4539 6.78339 9.37064 7.22834C8.87542 7.45081 8.50401 7.57794 8.28735 7.6415C8.07069 7.70506 7.91594 7.73685 7.79213 7.73685C7.35882 7.73685 7.14216 7.41903 7.14216 6.75161V5.19429C7.14216 4.68578 7.20406 4.3044 7.35882 4.08192C7.51357 3.85945 7.79213 3.63698 8.22545 3.4145C9.30874 2.84243 10.6087 2.3657 12.1253 1.98432C13.6419 1.57115 15.2514 1.38046 16.9537 1.38046C20.6369 1.38046 23.3296 2.23857 25.0629 3.9548C26.7652 5.67102 27.6318 8.27714 27.6318 11.7732V22.0705H27.6937ZM15.1276 26.9014C16.1489 26.9014 17.2013 26.7107 18.3155 26.3293C19.4298 25.9479 20.4202 25.2487 21.2559 24.2952C21.7511 23.6914 22.1225 23.024 22.3082 22.2612C22.4939 21.4984 22.6177 20.5767 22.6177 19.4962V18.1613C21.7202 17.9388 20.7607 17.7482 19.7702 17.621C18.7798 17.4939 17.8203 17.4303 16.8608 17.4303C14.7871 17.4303 13.2705 17.8435 12.2491 18.7016C11.2277 19.5597 10.7325 20.7674 10.7325 22.3565C10.7325 23.8503 11.1039 24.9627 11.8777 25.7254C12.6205 26.52 13.7038 26.9014 15.1276 26.9014ZM39.9813 30.3338C39.4242 30.3338 39.0528 30.2385 38.8052 30.016C38.5576 29.8253 38.3409 29.3803 38.1552 28.7765L30.8817 4.20905C30.696 3.57341 30.6031 3.16025 30.6031 2.93777C30.6031 2.42926 30.8507 2.14322 31.346 2.14322H34.3792C34.9672 2.14322 35.3696 2.23857 35.5863 2.46104C35.8339 2.65174 36.0196 3.09668 36.2053 3.70054L41.4051 24.7402L46.2335 3.70054C46.3882 3.0649 46.5739 2.65174 46.8215 2.46104C47.0691 2.27035 47.5025 2.14322 48.0596 2.14322H50.5357C51.1237 2.14322 51.5261 2.23857 51.7737 2.46104C52.0213 2.65174 52.238 3.09668 52.3618 3.70054L57.2521 24.9944L62.6066 3.70054C62.7923 3.0649 63.009 2.65174 63.2256 2.46104C63.4733 2.27035 63.8756 2.14322 64.4327 2.14322H67.3112C67.8064 2.14322 68.085 2.39748 68.085 2.93777C68.085 3.09668 68.054 3.25559 68.0231 3.44628C67.9921 3.63698 67.9302 3.89123 67.8064 4.24083L60.3472 28.8083C60.1615 29.4439 59.9448 29.8571 59.6972 30.0478C59.4496 30.2385 59.0472 30.3656 58.5211 30.3656H55.8593C55.2712 30.3656 54.8688 30.2702 54.6212 30.0478C54.3736 29.8253 54.157 29.4121 54.0332 28.7765L49.2357 8.27714L44.4692 28.7447C44.3145 29.3803 44.1288 29.7935 43.8812 30.016C43.6336 30.2385 43.2002 30.3338 42.6431 30.3338H39.9813ZM79.7536 31.1919C78.1441 31.1919 76.5346 31.0012 74.9871 30.6198C73.4395 30.2385 72.2324 29.8253 71.4277 29.3486C70.9325 29.0625 70.592 28.7447 70.4682 28.4587C70.3444 28.1726 70.2825 27.8548 70.2825 27.5688V25.9479C70.2825 25.2805 70.5301 24.9627 70.9944 24.9627C71.1801 24.9627 71.3658 24.9944 71.5515 25.058C71.7372 25.1216 72.0158 25.2487 72.3253 25.3758C73.3776 25.8526 74.5228 26.2339 75.7299 26.4882C76.968 26.7424 78.175 26.8696 79.4131 26.8696C81.363 26.8696 82.8796 26.52 83.932 25.8208C84.9843 25.1216 85.5414 24.1045 85.5414 22.8015C85.5414 21.9116 85.2629 21.1806 84.7057 20.5768C84.1486 19.9729 83.0963 19.4326 81.5797 18.9241L77.0918 17.4939C74.8323 16.7629 73.161 15.6823 72.1396 14.2521C71.1182 12.8537 70.592 11.2964 70.592 9.64376C70.592 8.30892 70.8706 7.13299 71.4277 6.11597C71.9848 5.09895 72.7276 4.20905 73.6562 3.50985C74.5847 2.77886 75.6371 2.23857 76.8751 1.85719C78.1131 1.4758 79.4131 1.31689 80.7749 1.31689C81.4559 1.31689 82.1677 1.34868 82.8487 1.44402C83.5606 1.53937 84.2105 1.6665 84.8605 1.79362C85.4795 1.95253 86.0676 2.11144 86.6247 2.30213C87.1818 2.49283 87.6151 2.68352 87.9247 2.87421C88.358 3.12847 88.6675 3.38272 88.8532 3.66876C89.0389 3.92301 89.1318 4.27261 89.1318 4.71756V6.21131C89.1318 6.87873 88.8841 7.22834 88.4199 7.22834C88.1723 7.22834 87.7699 7.10121 87.2437 6.84695C85.4795 6.02062 83.4986 5.60746 81.3011 5.60746C79.5369 5.60746 78.1441 5.89349 77.1846 6.49735C76.2251 7.10121 75.7299 8.02288 75.7299 9.32594C75.7299 10.2158 76.0394 10.9786 76.6584 11.5825C77.2775 12.1863 78.4227 12.7902 80.0631 13.3305L84.4581 14.7607C86.6866 15.4916 88.2961 16.5087 89.2556 17.8117C90.215 19.1148 90.6793 20.6085 90.6793 22.2612C90.6793 23.6278 90.4007 24.8673 89.8746 25.9479C89.3175 27.0285 88.5746 27.9819 87.6151 28.7447C86.6557 29.5393 85.5105 30.1113 84.1796 30.5245C82.7868 30.9694 81.3321 31.1919 79.7536 31.1919Z" fill="white"/>
<path fill-rule="evenodd" clip-rule="evenodd" d="M85.6038 46.6372C75.4208 54.3602 60.6262 58.4601 47.9053 58.4601C30.0774 58.4601 14.0138 51.6906 1.8809 40.4397C0.921417 39.5499 1.78805 38.3421 2.93324 39.0413C16.0565 46.8597 32.244 51.5952 48.9886 51.5952C60.2857 51.5952 72.6972 49.1798 84.1181 44.2218C85.8204 43.4273 87.2751 45.3659 85.6038 46.6372Z" fill="white"/>
<path fill-rule="evenodd" clip-rule="evenodd" d="M89.8426 41.6799C88.5426 39.9636 81.2381 40.8535 77.9264 41.2667C76.9359 41.3938 76.7812 40.5039 77.6788 39.8365C83.4976 35.6413 93.0615 36.849 94.1757 38.2474C95.29 39.6776 93.8662 49.4982 88.4188 54.202C87.5831 54.9329 86.7784 54.5516 87.1498 53.5981C88.3879 50.4517 91.1425 43.3643 89.8426 41.6799Z" fill="white"/>
</g>
<defs>
<clipPath id="clip0_8_7274">
<rect width="94.0915" height="57.8431" fill="white" transform="translate(0.954224 0.967285)"/>
</clipPath>
</defs>
</svg>
