<svg width="165" height="43" viewBox="0 0 165 43" fill="none" xmlns="http://www.w3.org/2000/svg">
<path d="M30.1218 7.85104V27.8107C30.1218 32.55 28.8002 36.1044 26.1572 38.4741C23.5445 40.8741 19.8078 42.0741 14.947 42.0741C12.4558 42.0741 10.1317 41.8007 7.97475 41.2539C5.81777 40.7374 3.97978 39.9779 2.46078 38.9754L5.9241 31.9576C6.89626 32.6867 8.12665 33.2791 9.61527 33.7348C11.1039 34.1905 12.5318 34.4184 13.8989 34.4184C15.9647 34.4184 17.4685 33.9778 18.4103 33.0968C19.3521 32.2158 19.823 30.9247 19.823 29.2234V28.7677C18.2736 30.5297 15.9799 31.4107 12.9419 31.4107C10.8153 31.4107 8.82539 30.9247 6.97221 29.9525C5.14941 28.95 3.69117 27.5373 2.59749 25.7145C1.50381 23.8613 0.95697 21.7499 0.95697 19.3803C0.95697 17.0106 1.50381 14.9144 2.59749 13.0916C3.69117 11.2688 5.14941 9.87131 6.97221 8.89915C8.82539 7.89661 10.8153 7.39534 12.9419 7.39534C16.3444 7.39534 18.8052 8.48902 20.3242 10.6764V7.85104H30.1218ZM15.6761 23.3904C16.8913 23.3904 17.8938 23.0259 18.6837 22.2967C19.504 21.5372 19.9141 20.5651 19.9141 19.3803C19.9141 18.1954 19.504 17.2385 18.6837 16.5093C17.8938 15.7802 16.8913 15.4157 15.6761 15.4157C14.4305 15.4157 13.3976 15.7802 12.5773 16.5093C11.7874 17.2385 11.3925 18.1954 11.3925 19.3803C11.3925 20.5651 11.8026 21.5372 12.6229 22.2967C13.4432 23.0259 14.4609 23.3904 15.6761 23.3904ZM45.8406 7.39534C50.2153 7.39534 53.5571 8.38269 55.866 10.3574C58.1749 12.3017 59.3293 15.3093 59.3293 19.3803V32.7778H49.7596V29.4968C48.5748 31.988 46.2203 33.2335 42.6962 33.2335C40.7215 33.2335 39.0355 32.8994 37.638 32.231C36.2709 31.5323 35.2228 30.6057 34.4936 29.4512C33.7949 28.2664 33.4455 26.9449 33.4455 25.4866C33.4455 23.0259 34.3873 21.1575 36.2709 19.8815C38.1544 18.6056 41.0102 17.9676 44.838 17.9676H48.9849C48.6507 16.0233 47.0862 15.0511 44.2912 15.0511C43.1671 15.0511 42.0279 15.2334 40.8734 15.5979C39.719 15.9321 38.7317 16.403 37.9114 17.0106L34.6304 10.2207C36.0582 9.33966 37.7747 8.65611 39.7798 8.17003C41.8152 7.65357 43.8355 7.39534 45.8406 7.39534ZM45.795 27.036C46.5241 27.036 47.1773 26.8385 47.7545 26.4436C48.3317 26.0487 48.7571 25.4563 49.0305 24.6664V22.9347H46.4786C44.3823 22.9347 43.3342 23.6335 43.3342 25.0309C43.3342 25.6082 43.5469 26.0942 43.9722 26.4892C44.4279 26.8537 45.0355 27.036 45.795 27.036ZM82.1449 31.912C80.5955 32.793 78.4841 33.2335 75.8107 33.2335C72.317 33.2335 69.6284 32.3981 67.7448 30.7272C65.8612 29.0259 64.9195 26.4892 64.9195 23.117V16.7372H61.5017V9.21814H64.9195V2.24593H75.2183V9.21814H80.3221V16.7372H75.2183V23.0259C75.2183 23.7854 75.4157 24.3778 75.8107 24.8031C76.2056 25.2284 76.7221 25.4411 77.3601 25.4411C78.2411 25.4411 79.0158 25.2132 79.6841 24.7575L82.1449 31.912ZM98.4679 0.87883V32.7778H87.7133V8.99029H82.2449V0.87883H98.4679ZM107.991 19.1524C106.259 19.1524 104.816 18.6056 103.661 17.5119C102.537 16.3878 101.975 14.96 101.975 13.2283C101.975 11.4966 102.537 10.0992 103.661 9.03586C104.816 7.94218 106.259 7.39534 107.991 7.39534C109.722 7.39534 111.15 7.94218 112.274 9.03586C113.429 10.0992 114.006 11.4966 114.006 13.2283C114.006 14.96 113.429 16.3878 112.274 17.5119C111.15 18.6056 109.722 19.1524 107.991 19.1524ZM107.991 33.2335C106.259 33.2335 104.816 32.6867 103.661 31.593C102.537 30.469 101.975 29.0411 101.975 27.3094C101.975 25.5778 102.537 24.1803 103.661 23.117C104.816 22.0233 106.259 21.4765 107.991 21.4765C109.722 21.4765 111.15 22.0233 112.274 23.117C113.429 24.1803 114.006 25.5778 114.006 27.3094C114.006 29.0411 113.429 30.469 112.274 31.593C111.15 32.6867 109.722 33.2335 107.991 33.2335ZM143.704 20.2917C143.704 20.4436 143.659 21.2486 143.568 22.7069H126.251C126.616 23.6486 127.223 24.3778 128.074 24.8942C128.924 25.3803 129.988 25.6233 131.264 25.6233C132.357 25.6233 133.269 25.4866 133.998 25.2132C134.757 24.9398 135.578 24.4689 136.459 23.8005L141.836 29.2234C139.406 31.8968 135.775 33.2335 130.945 33.2335C127.937 33.2335 125.294 32.6867 123.015 31.593C120.737 30.469 118.975 28.9196 117.729 26.9449C116.484 24.9702 115.861 22.7524 115.861 20.2917C115.861 17.8005 116.469 15.5828 117.684 13.6384C118.929 11.6637 120.615 10.1295 122.742 9.03586C124.899 7.94218 127.314 7.39534 129.988 7.39534C132.509 7.39534 134.803 7.89661 136.869 8.89915C138.965 9.90169 140.621 11.3751 141.836 13.3194C143.081 15.2638 143.704 17.5878 143.704 20.2917ZM130.079 14.4131C129.016 14.4131 128.135 14.7017 127.436 15.279C126.737 15.8562 126.281 16.6764 126.069 17.7397H134.089C133.876 16.7068 133.421 15.9017 132.722 15.3245C132.023 14.7169 131.142 14.4131 130.079 14.4131ZM156.752 10.5397C158.575 8.44345 161.263 7.39534 164.818 7.39534V16.5093C163.998 16.3878 163.238 16.3271 162.539 16.3271C159.015 16.3271 157.253 18.1195 157.253 21.7043V32.7778H146.954V7.85104H156.752V10.5397Z" fill="white"/>
</svg>
