<svg width="124" height="50" viewBox="0 0 124 50" fill="none" xmlns="http://www.w3.org/2000/svg">
<path d="M44.9221 1.39087V0.979747H44.511H35.5026H35.0915V1.39087V12.7136L25.3996 1.12709L25.2764 0.979747H25.0843H17.486H17.0748V1.39087V28.8075V29.2187H17.486H26.4943H26.9054V28.8075V17.4848L36.5973 29.0713L36.7205 29.2187H36.9126H44.511H44.9221V28.8075V1.39087ZM71.5945 13.0625V12.6514H71.1833H60.1578V8.77366H72.7892H73.2003V8.36254V1.39087V0.979747H72.7892H50.5033H50.0922V1.39087V28.8075V29.2187H50.5033H59.7467H60.1578V28.8075V20.4453H71.1833H71.5945V20.0342V13.0625ZM92.3775 1.39087V0.979747H91.9664H78.0231H77.6119V1.39087V8.36254V8.77366H78.0231H82.312V28.8075V29.2187H82.7231H91.9664H92.3775V28.8075V1.39087Z" fill="white" stroke="white" stroke-width="0.822244"/>
<circle cx="101.478" cy="6.42658" r="5.03571" fill="white"/>
<path d="M18.9242 46.6543L18.6629 47.1491L18.6673 47.1514L18.9242 46.6543ZM16.5427 44.4429L16.0618 44.7291L16.0659 44.7358L16.5427 44.4429ZM16.5427 37.9956L16.0644 37.7052L16.0634 37.7069L16.5427 37.9956ZM18.9242 35.7841L19.1811 36.2812L19.1855 36.2789L18.9242 35.7841ZM25.4225 35.597L25.1929 36.1073V36.1073L25.4225 35.597ZM27.668 37.3662L28.0406 37.7836L28.4275 37.4383L28.1125 37.0263L27.668 37.3662ZM25.1333 39.6287L24.6949 39.9763L25.0634 40.4411L25.5059 40.0461L25.1333 39.6287ZM20.5063 39.0503L20.9104 39.4373L20.9145 39.433L20.5063 39.0503ZM20.5063 43.3882L20.0981 43.7709L20.1021 43.7751L20.5063 43.3882ZM25.1333 42.7928L25.5059 42.3754L25.0634 41.9803L24.6949 42.4452L25.1333 42.7928ZM27.668 45.0553L28.1125 45.3952L28.4275 44.9832L28.0406 44.6379L27.668 45.0553ZM25.4225 46.8244L25.1929 46.3142L25.4225 46.8244ZM22.3265 46.8773C21.1472 46.8773 20.1028 46.6336 19.1811 46.1573L18.6673 47.1514C19.7643 47.7184 20.9881 47.9964 22.3265 47.9964V46.8773ZM19.1855 46.1596C18.2617 45.6717 17.5435 45.003 17.0194 44.1499L16.0659 44.7358C16.6986 45.7654 17.5681 46.5709 18.6629 47.1491L19.1855 46.1596ZM17.0234 44.1567C16.5122 43.2979 16.2516 42.3209 16.2516 41.2107H15.1326C15.1326 42.5048 15.439 43.6826 16.0619 44.7291L17.0234 44.1567ZM16.2516 41.2107C16.2516 40.1005 16.5123 39.1304 17.0219 38.2843L16.0634 37.7069C15.439 38.7434 15.1326 39.9167 15.1326 41.2107H16.2516ZM17.0209 38.286C17.5448 37.4231 18.2613 36.7566 19.1811 36.2812L18.6673 35.2871C17.5685 35.855 16.6972 36.6629 16.0644 37.7052L17.0209 38.286ZM19.1855 36.2789C20.1063 35.7927 21.1492 35.5441 22.3265 35.5441V34.4251C20.9861 34.4251 19.7608 34.7096 18.6629 35.2894L19.1855 36.2789ZM22.3265 35.5441C23.4169 35.5441 24.3687 35.7363 25.1929 36.1073L25.6521 35.0868C24.6619 34.6412 23.5496 34.4251 22.3265 34.4251V35.5441ZM25.1929 36.1073C26.0177 36.4784 26.6916 37.0105 27.2236 37.7061L28.1125 37.0263C27.4649 36.1795 26.6419 35.5321 25.6521 35.0868L25.1929 36.1073ZM27.2954 36.9488L24.7607 39.2113L25.5059 40.0461L28.0406 37.7836L27.2954 36.9488ZM25.5718 39.2811C24.7509 38.2455 23.7325 37.6742 22.5306 37.6742V38.7933C23.3247 38.7933 24.0414 39.1519 24.6949 39.9763L25.5718 39.2811ZM22.5306 37.6742C21.558 37.6742 20.7279 37.9958 20.0981 38.6676L20.9145 39.433C21.3053 39.0161 21.8248 38.7933 22.5306 38.7933V37.6742ZM20.1021 38.6633C19.4703 39.3233 19.1812 40.1942 19.1812 41.2107H20.3003C20.3003 40.4127 20.5216 39.8434 20.9104 39.4373L20.1021 38.6633ZM19.1812 41.2107C19.1812 42.2278 19.4704 43.1014 20.0981 43.7709L20.9145 43.0055C20.5215 42.5863 20.3003 42.0082 20.3003 41.2107H19.1812ZM20.1021 43.7751C20.7329 44.4339 21.5617 44.7472 22.5306 44.7472V43.6282C21.8211 43.6282 21.3003 43.4085 20.9104 43.0012L20.1021 43.7751ZM22.5306 44.7472C23.7325 44.7472 24.7509 44.1759 25.5718 43.1404L24.6949 42.4452C24.0414 43.2695 23.3247 43.6282 22.5306 43.6282V44.7472ZM24.7607 43.2102L27.2954 45.4727L28.0406 44.6379L25.5059 42.3754L24.7607 43.2102ZM27.2236 44.7154C26.6916 45.411 26.0177 45.943 25.1929 46.3142L25.6521 47.3347C26.6419 46.8893 27.4649 46.2419 28.1125 45.3952L27.2236 44.7154ZM25.1929 46.3142C24.3687 46.6851 23.4169 46.8773 22.3265 46.8773V47.9964C23.5496 47.9964 24.6619 47.7803 25.6521 47.3347L25.1929 46.3142ZM30.7554 46.7224L30.4997 47.2201L30.508 47.2242L30.7554 46.7224ZM28.8332 45.0042L28.3599 45.3028L28.362 45.3061L28.8332 45.0042ZM28.8332 40.0199L29.3043 40.3218L29.3064 40.3184L28.8332 40.0199ZM30.7554 38.3018L30.508 37.8L30.5052 37.8014L30.7554 38.3018ZM36.3351 38.3018L36.0849 38.8023L36.0876 38.8036L36.3351 38.3018ZM38.2574 40.0199L37.7808 40.3132L37.7863 40.3218L38.2574 40.0199ZM38.2574 45.0042L37.7841 44.7057L37.7829 44.7077L38.2574 45.0042ZM36.3351 46.7224L36.5854 47.2228L36.5881 47.2215L36.3351 46.7224ZM34.634 43.8645L35.0514 44.2372L35.0578 44.2298L34.634 43.8645ZM32.4566 43.8645L32.0327 44.2299L32.0392 44.2371L32.4566 43.8645ZM33.5453 46.7753C32.5889 46.7753 31.7451 46.5866 31.0029 46.2206L30.508 47.2242C31.4215 47.6747 32.4377 47.8943 33.5453 47.8943V46.7753ZM31.0112 46.2247C30.2765 45.8472 29.7125 45.3397 29.3043 44.7024L28.362 45.3061C28.8837 46.1205 29.6012 46.7583 30.4997 47.22L31.0112 46.2247ZM29.3064 44.7057C28.9016 44.064 28.6952 43.3353 28.6952 42.5036H27.5762C27.5762 43.5318 27.8348 44.4702 28.3599 45.3028L29.3064 44.7057ZM28.6952 42.5036C28.6952 41.6718 28.9016 40.9504 29.3043 40.3218L28.362 39.7181C27.8348 40.5412 27.5762 41.4754 27.5762 42.5036H28.6952ZM29.3064 40.3184C29.7142 39.6719 30.276 39.1671 31.0057 38.8023L30.5052 37.8014C29.6018 38.253 28.882 38.8937 28.3599 39.7214L29.3064 40.3184ZM31.0029 38.8036C31.7451 38.4376 32.5889 38.2489 33.5453 38.2489V37.1299C32.4377 37.1299 31.4215 37.3495 30.508 37.8L31.0029 38.8036ZM33.5453 38.2489C34.5142 38.2489 35.3565 38.438 36.0849 38.8023L36.5853 37.8014C35.6807 37.349 34.663 37.1299 33.5453 37.1299V38.2489ZM36.0876 38.8036C36.8276 39.1685 37.3861 39.6718 37.7809 40.3132L38.7339 39.7267C38.2214 38.8938 37.4984 38.2516 36.5826 37.8L36.0876 38.8036ZM37.7863 40.3218C38.1889 40.9504 38.3953 41.6718 38.3953 42.5036H39.5144C39.5144 41.4754 39.2558 40.5412 38.7285 39.7181L37.7863 40.3218ZM38.3953 42.5036C38.3953 43.3353 38.1889 44.064 37.7842 44.7057L38.7306 45.3027C39.2558 44.4702 39.5144 43.5318 39.5144 42.5036H38.3953ZM37.7829 44.7077C37.3878 45.3398 36.8271 45.8457 36.0822 46.2233L36.5881 47.2215C37.4989 46.7598 38.2197 46.1203 38.7319 45.3008L37.7829 44.7077ZM36.0849 46.2219C35.3565 46.5861 34.5142 46.7753 33.5453 46.7753V47.8943C34.663 47.8943 35.6807 47.6752 36.5853 47.2228L36.0849 46.2219ZM33.5453 44.9003C34.1399 44.9003 34.6571 44.6787 35.0514 44.2371L34.2166 43.4918C34.0439 43.6853 33.8352 43.7813 33.5453 43.7813V44.9003ZM35.0578 44.2298C35.4544 43.7698 35.6188 43.1711 35.6188 42.5036H34.4998C34.4998 42.9929 34.3807 43.3014 34.2102 43.4992L35.0578 44.2298ZM35.6188 42.5036C35.6188 41.8375 35.4549 41.239 35.0514 40.787L34.2166 41.5323C34.3801 41.7155 34.4998 42.0129 34.4998 42.5036H35.6188ZM35.0514 40.787C34.6571 40.3454 34.1399 40.1239 33.5453 40.1239V41.2429C33.8352 41.2429 34.0439 41.3389 34.2166 41.5323L35.0514 40.787ZM33.5453 40.1239C32.9507 40.1239 32.4335 40.3454 32.0392 40.787L32.8739 41.5323C33.0467 41.3389 33.2553 41.2429 33.5453 41.2429V40.1239ZM32.0392 40.787C31.6357 41.239 31.4717 41.8375 31.4717 42.5036H32.5908C32.5908 42.0129 32.7104 41.7155 32.8739 41.5323L32.0392 40.787ZM31.4717 42.5036C31.4717 43.1711 31.6362 43.7698 32.0328 44.2298L32.8803 43.4992C32.7099 43.3014 32.5908 42.9929 32.5908 42.5036H31.4717ZM32.0392 44.2371C32.4335 44.6787 32.9507 44.9003 33.5453 44.9003V43.7813C33.2553 43.7813 33.0467 43.6853 32.8739 43.4918L32.0392 44.2371ZM55.3322 38.7271L54.93 39.1161L54.9333 39.1194L55.3322 38.7271ZM56.3529 47.1647V47.7242H56.9124V47.1647H56.3529ZM52.5083 47.1647H51.9488V47.7242H52.5083V47.1647ZM50.586 41.3298L50.1561 40.9715L50.1474 40.9825L50.586 41.3298ZM50.2628 47.1647V47.7242H50.8224V47.1647H50.2628ZM46.4183 47.1647H45.8588V47.7242H46.4183V47.1647ZM44.496 41.3298L44.066 40.9715L44.0573 40.9825L44.496 41.3298ZM44.1728 47.1647V47.7242H44.7323V47.1647H44.1728ZM40.3283 47.1647H39.7687V47.7242H40.3283V47.1647ZM40.3283 37.8595V37.3H39.7687V37.8595H40.3283ZM43.9857 37.8595H44.5452V37.3H43.9857V37.8595ZM43.9857 38.7271H43.4261V40.0779L44.3813 39.1227L43.9857 38.7271ZM48.3065 38.0466L48.0655 38.5517L48.075 38.556L48.3065 38.0466ZM49.5313 39.1013L49.0658 39.4117L49.4836 40.0384L49.9629 39.4574L49.5313 39.1013ZM50.8922 38.0636L51.1205 38.5746L51.1294 38.5704L50.8922 38.0636ZM52.6444 38.2489C53.6429 38.2489 54.384 38.5515 54.93 39.1161L55.7344 38.3381C54.9422 37.5191 53.8914 37.1299 52.6444 37.1299V38.2489ZM54.9333 39.1194C55.4731 39.6682 55.7933 40.5447 55.7933 41.8572H56.9124C56.9124 40.3798 56.5522 39.1695 55.7311 38.3347L54.9333 39.1194ZM55.7933 41.8572V47.1647H56.9124V41.8572H55.7933ZM56.3529 46.6051H52.5083V47.7242H56.3529V46.6051ZM53.0678 47.1647V42.5206H51.9488V47.1647H53.0678ZM53.0678 42.5206C53.0678 41.9449 52.9777 41.4165 52.7183 41.0167C52.4317 40.5751 51.9861 40.362 51.4706 40.362V41.4811C51.647 41.4811 51.7202 41.5344 51.7795 41.6259C51.866 41.7591 51.9488 42.0302 51.9488 42.5206H53.0678ZM51.4706 40.362C50.9463 40.362 50.4923 40.5683 50.1562 40.9716L51.0159 41.688C51.1334 41.5469 51.2691 41.4811 51.4706 41.4811V40.362ZM50.1474 40.9825C49.8153 41.4019 49.7033 41.9869 49.7033 42.6227H50.8224C50.8224 42.079 50.9258 41.8021 51.0247 41.6771L50.1474 40.9825ZM49.7033 42.6227V47.1647H50.8224V42.6227H49.7033ZM50.2628 46.6051H46.4183V47.7242H50.2628V46.6051ZM46.9778 47.1647V42.5206H45.8588V47.1647H46.9778ZM46.9778 42.5206C46.9778 41.9449 46.8877 41.4165 46.6282 41.0167C46.3417 40.5751 45.896 40.362 45.3806 40.362V41.4811C45.557 41.4811 45.6302 41.5344 45.6895 41.6259C45.776 41.7591 45.8588 42.0302 45.8588 42.5206H46.9778ZM45.3806 40.362C44.8563 40.362 44.4022 40.5683 44.0662 40.9716L44.9258 41.688C45.0434 41.5469 45.1791 41.4811 45.3806 41.4811V40.362ZM44.0573 40.9825C43.7253 41.4019 43.6133 41.9869 43.6133 42.6227H44.7323C44.7323 42.079 44.8358 41.8021 44.9347 41.6771L44.0573 40.9825ZM43.6133 42.6227V47.1647H44.7323V42.6227H43.6133ZM44.1728 46.6051H40.3283V47.7242H44.1728V46.6051ZM40.8878 47.1647V37.8595H39.7687V47.1647H40.8878ZM40.3283 38.419H43.9857V37.3H40.3283V38.419ZM43.4261 37.8595V38.7271H44.5452V37.8595H43.4261ZM44.3813 39.1227C44.9583 38.5458 45.6901 38.2489 46.6224 38.2489V37.1299C45.4226 37.1299 44.3967 37.5248 43.59 38.3314L44.3813 39.1227ZM46.6224 38.2489C47.1735 38.2489 47.6509 38.3537 48.0655 38.5516L48.5475 37.5417C47.9642 37.2632 47.3188 37.1299 46.6224 37.1299V38.2489ZM48.075 38.556C48.4746 38.7377 48.8035 39.0182 49.0658 39.4117L49.9969 38.791C49.6241 38.2318 49.1364 37.8093 48.5381 37.5373L48.075 38.556ZM49.9629 39.4574C50.2827 39.0699 50.6669 38.7772 51.1205 38.5745L50.664 37.5528C50.0516 37.8264 49.5285 38.2255 49.0997 38.7453L49.9629 39.4574ZM51.1294 38.5704C51.5825 38.3583 52.0847 38.2489 52.6444 38.2489V37.1299C51.9339 37.1299 51.2681 37.2699 50.655 37.5569L51.1294 38.5704ZM73.1947 38.7271L72.7925 39.1161L72.7958 39.1194L73.1947 38.7271ZM74.2153 47.1647V47.7242H74.7749V47.1647H74.2153ZM70.3708 47.1647H69.8113V47.7242H70.3708V47.1647ZM68.4485 41.3298L68.0186 40.9715L68.0098 40.9825L68.4485 41.3298ZM68.1253 47.1647V47.7242H68.6848V47.1647H68.1253ZM64.2808 47.1647H63.7212V47.7242H64.2808V47.1647ZM62.3585 41.3298L61.9285 40.9715L61.9198 40.9825L62.3585 41.3298ZM62.0353 47.1647V47.7242H62.5948V47.1647H62.0353ZM58.1907 47.1647H57.6312V47.7242H58.1907V47.1647ZM58.1907 37.8595V37.3H57.6312V37.8595H58.1907ZM61.8482 37.8595H62.4077V37.3H61.8482V37.8595ZM61.8482 38.7271H61.2886V40.0779L62.2438 39.1227L61.8482 38.7271ZM66.169 38.0466L65.928 38.5517L65.9375 38.556L66.169 38.0466ZM67.3938 39.1013L66.9283 39.4117L67.3461 40.0384L67.8254 39.4574L67.3938 39.1013ZM68.7547 38.0636L68.983 38.5746L68.9919 38.5704L68.7547 38.0636ZM70.5069 38.2489C71.5054 38.2489 72.2464 38.5515 72.7925 39.1161L73.5969 38.3381C72.8047 37.5191 71.7538 37.1299 70.5069 37.1299V38.2489ZM72.7958 39.1194C73.3356 39.6682 73.6558 40.5447 73.6558 41.8572H74.7749C74.7749 40.3798 74.4147 39.1695 73.5936 38.3347L72.7958 39.1194ZM73.6558 41.8572V47.1647H74.7749V41.8572H73.6558ZM74.2153 46.6051H70.3708V47.7242H74.2153V46.6051ZM70.9303 47.1647V42.5206H69.8113V47.1647H70.9303ZM70.9303 42.5206C70.9303 41.9449 70.8402 41.4165 70.5807 41.0167C70.2942 40.5751 69.8485 40.362 69.3331 40.362V41.4811C69.5095 41.4811 69.5827 41.5344 69.642 41.6259C69.7285 41.7591 69.8113 42.0302 69.8113 42.5206H70.9303ZM69.3331 40.362C68.8088 40.362 68.3548 40.5683 68.0187 40.9716L68.8784 41.688C68.9959 41.5469 69.1316 41.4811 69.3331 41.4811V40.362ZM68.0098 40.9825C67.6778 41.4019 67.5658 41.9869 67.5658 42.6227H68.6848C68.6848 42.079 68.7883 41.8021 68.8872 41.6771L68.0098 40.9825ZM67.5658 42.6227V47.1647H68.6848V42.6227H67.5658ZM68.1253 46.6051H64.2808V47.7242H68.1253V46.6051ZM64.8403 47.1647V42.5206H63.7212V47.1647H64.8403ZM64.8403 42.5206C64.8403 41.9449 64.7501 41.4165 64.4907 41.0167C64.2042 40.5751 63.7585 40.362 63.2431 40.362V41.4811C63.4194 41.4811 63.4927 41.5344 63.552 41.6259C63.6384 41.7591 63.7212 42.0302 63.7212 42.5206H64.8403ZM63.2431 40.362C62.7188 40.362 62.2647 40.5683 61.9287 40.9716L62.7883 41.688C62.9059 41.5469 63.0416 41.4811 63.2431 41.4811V40.362ZM61.9198 40.9825C61.5878 41.4019 61.4758 41.9869 61.4758 42.6227H62.5948C62.5948 42.079 62.6983 41.8021 62.7972 41.6771L61.9198 40.9825ZM61.4758 42.6227V47.1647H62.5948V42.6227H61.4758ZM62.0353 46.6051H58.1907V47.7242H62.0353V46.6051ZM58.7503 47.1647V37.8595H57.6312V47.1647H58.7503ZM58.1907 38.419H61.8482V37.3H58.1907V38.419ZM61.2886 37.8595V38.7271H62.4077V37.8595H61.2886ZM62.2438 39.1227C62.8207 38.5458 63.5526 38.2489 64.4849 38.2489V37.1299C63.2851 37.1299 62.2592 37.5248 61.4525 38.3314L62.2438 39.1227ZM64.4849 38.2489C65.036 38.2489 65.5134 38.3537 65.928 38.5516L66.41 37.5417C65.8266 37.2632 65.1813 37.1299 64.4849 37.1299V38.2489ZM65.9375 38.556C66.3371 38.7377 66.666 39.0182 66.9283 39.4117L67.8594 38.791C67.4866 38.2318 66.9989 37.8093 66.4006 37.5373L65.9375 38.556ZM67.8254 39.4574C68.1452 39.0699 68.5294 38.7772 68.983 38.5745L68.5265 37.5528C67.914 37.8264 67.391 38.2255 66.9622 38.7453L67.8254 39.4574ZM68.9919 38.5704C69.445 38.3583 69.9472 38.2489 70.5069 38.2489V37.1299C69.7964 37.1299 69.1305 37.2699 68.5175 37.5569L68.9919 38.5704ZM78.3458 46.7224L78.09 47.2201L78.0983 47.2242L78.3458 46.7224ZM76.4235 45.0042L75.9502 45.3028L75.9524 45.3061L76.4235 45.0042ZM76.4235 40.0199L76.8946 40.3218L76.8967 40.3184L76.4235 40.0199ZM78.3458 38.3018L78.0983 37.8L78.0955 37.8014L78.3458 38.3018ZM83.9255 38.3018L83.6752 38.8023L83.678 38.8036L83.9255 38.3018ZM85.8477 40.0199L85.3711 40.3132L85.3766 40.3218L85.8477 40.0199ZM85.8477 45.0042L85.3745 44.7057L85.3733 44.7077L85.8477 45.0042ZM83.9255 46.7224L84.1757 47.2228L84.1784 47.2215L83.9255 46.7224ZM82.2243 43.8645L82.6418 44.2372L82.6481 44.2298L82.2243 43.8645ZM80.0469 43.8645L79.623 44.2299L79.6295 44.2371L80.0469 43.8645ZM81.1356 46.7753C80.1792 46.7753 79.3355 46.5866 78.5932 46.2206L78.0983 47.2242C79.0118 47.6747 80.028 47.8943 81.1356 47.8943V46.7753ZM78.6015 46.2247C77.8669 45.8472 77.3029 45.3397 76.8946 44.7024L75.9524 45.3061C76.4741 46.1205 77.1916 46.7583 78.09 47.22L78.6015 46.2247ZM76.8967 44.7057C76.4919 44.064 76.2856 43.3353 76.2856 42.5036H75.1665C75.1665 43.5318 75.4251 44.4702 75.9502 45.3028L76.8967 44.7057ZM76.2856 42.5036C76.2856 41.6718 76.4919 40.9504 76.8946 40.3218L75.9524 39.7181C75.4251 40.5412 75.1665 41.4754 75.1665 42.5036H76.2856ZM76.8967 40.3184C77.3046 39.6719 77.8663 39.1671 78.596 38.8023L78.0955 37.8014C77.1922 38.253 76.4724 38.8937 75.9502 39.7214L76.8967 40.3184ZM78.5932 38.8036C79.3355 38.4376 80.1792 38.2489 81.1356 38.2489V37.1299C80.028 37.1299 79.0118 37.3495 78.0983 37.8L78.5932 38.8036ZM81.1356 38.2489C82.1046 38.2489 82.9468 38.438 83.6752 38.8023L84.1757 37.8014C83.271 37.349 82.2534 37.1299 81.1356 37.1299V38.2489ZM83.678 38.8036C84.418 39.1685 84.9765 39.6718 85.3712 40.3132L86.3243 39.7267C85.8117 38.8938 85.0887 38.2516 84.1729 37.8L83.678 38.8036ZM85.3766 40.3218C85.7793 40.9504 85.9857 41.6718 85.9857 42.5036H87.1047C87.1047 41.4754 86.8461 40.5412 86.3189 39.7181L85.3766 40.3218ZM85.9857 42.5036C85.9857 43.3353 85.7793 44.064 85.3745 44.7057L86.321 45.3027C86.8461 44.4702 87.1047 43.5318 87.1047 42.5036H85.9857ZM85.3733 44.7077C84.9782 45.3398 84.4174 45.8457 83.6725 46.2233L84.1784 47.2215C85.0893 46.7598 85.81 46.1203 86.3222 45.3008L85.3733 44.7077ZM83.6752 46.2219C82.9468 46.5861 82.1046 46.7753 81.1356 46.7753V47.8943C82.2534 47.8943 83.271 47.6752 84.1757 47.2228L83.6752 46.2219ZM81.1356 44.9003C81.7302 44.9003 82.2474 44.6787 82.6417 44.2371L81.807 43.4918C81.6342 43.6853 81.4256 43.7813 81.1356 43.7813V44.9003ZM82.6481 44.2298C83.0447 43.7698 83.2091 43.1711 83.2091 42.5036H82.0901C82.0901 42.9929 81.971 43.3014 81.8005 43.4992L82.6481 44.2298ZM83.2091 42.5036C83.2091 41.8375 83.0452 41.239 82.6417 40.787L81.807 41.5323C81.9705 41.7155 82.0901 42.0129 82.0901 42.5036H83.2091ZM82.6417 40.787C82.2474 40.3454 81.7302 40.1239 81.1356 40.1239V41.2429C81.4256 41.2429 81.6342 41.3389 81.807 41.5323L82.6417 40.787ZM81.1356 40.1239C80.541 40.1239 80.0238 40.3454 79.6295 40.787L80.4643 41.5323C80.637 41.3389 80.8456 41.2429 81.1356 41.2429V40.1239ZM79.6295 40.787C79.226 41.239 79.0621 41.8375 79.0621 42.5036H80.1811C80.1811 42.0129 80.3008 41.7155 80.4643 41.5323L79.6295 40.787ZM79.0621 42.5036C79.0621 43.1711 79.2265 43.7698 79.6231 44.2298L80.4707 43.4992C80.3002 43.3014 80.1811 42.9929 80.1811 42.5036H79.0621ZM79.6295 44.2371C80.0238 44.6787 80.541 44.9003 81.1356 44.9003V43.7813C80.8456 43.7813 80.637 43.6853 80.4643 43.4918L79.6295 44.2371ZM97.1387 38.7271L96.743 39.1227L96.7463 39.1259L97.1387 38.7271ZM98.1934 47.1647V47.7242H98.7529V47.1647H98.1934ZM94.3488 47.1647H93.7893V47.7242H94.3488V47.1647ZM92.1544 41.3808L91.7362 41.0091L91.7353 41.0101L92.1544 41.3808ZM91.7631 47.1647V47.7242H92.3227V47.1647H91.7631ZM87.9186 47.1647H87.3591V47.7242H87.9186V47.1647ZM87.9186 37.8595V37.3H87.3591V37.8595H87.9186ZM91.576 37.8595H92.1355V37.3H91.576V37.8595ZM91.576 38.7781H91.0165V40.1289L91.9716 39.1738L91.576 38.7781ZM92.8348 37.9616L93.034 38.4844V38.4844L92.8348 37.9616ZM94.3829 38.2489C95.4072 38.2489 96.1741 38.5537 96.743 39.1227L97.5343 38.3314C96.7197 37.5169 95.6494 37.1299 94.3829 37.1299V38.2489ZM96.7463 39.1259C97.3047 39.6754 97.6339 40.5492 97.6339 41.8572H98.7529C98.7529 40.3752 98.3789 39.1624 97.5311 38.3282L96.7463 39.1259ZM97.6339 41.8572V47.1647H98.7529V41.8572H97.6339ZM98.1934 46.6051H94.3488V47.7242H98.1934V46.6051ZM94.9084 47.1647V42.5206H93.7893V47.1647H94.9084ZM94.9084 42.5206C94.9084 41.938 94.8076 41.4007 94.5195 40.9965C94.2066 40.5575 93.7365 40.362 93.2091 40.362V41.4811C93.4415 41.4811 93.5413 41.5521 93.6083 41.6461C93.7001 41.7749 93.7893 42.0371 93.7893 42.5206H94.9084ZM93.2091 40.362C92.6277 40.362 92.1207 40.5766 91.7362 41.0091L92.5726 41.7526C92.7325 41.5727 92.9286 41.4811 93.2091 41.4811V40.362ZM91.7353 41.0101C91.3414 41.4554 91.2036 42.0918 91.2036 42.7928H92.3227C92.3227 42.2009 92.4457 41.896 92.5735 41.7516L91.7353 41.0101ZM91.2036 42.7928V47.1647H92.3227V42.7928H91.2036ZM91.7631 46.6051H87.9186V47.7242H91.7631V46.6051ZM88.4781 47.1647V37.8595H87.3591V47.1647H88.4781ZM87.9186 38.419H91.576V37.3H87.9186V38.419ZM91.0165 37.8595V38.7781H92.1355V37.8595H91.0165ZM91.9716 39.1738C92.2792 38.8662 92.632 38.6376 93.034 38.4844L92.6357 37.4387C92.0851 37.6484 91.5987 37.9642 91.1804 38.3825L91.9716 39.1738ZM93.034 38.4844C93.4412 38.3293 93.8891 38.2489 94.3829 38.2489V37.1299C93.7653 37.1299 93.1811 37.2309 92.6357 37.4387L93.034 38.4844ZM101.326 47.0796L101.205 47.626L101.326 47.0796ZM99.4547 46.4162L98.9382 46.2012L98.7485 46.657L99.1771 46.902L99.4547 46.4162ZM100.509 43.8815L100.799 43.4028L100.243 43.066L99.9929 43.6665L100.509 43.8815ZM102.04 44.4939L102.176 43.9511L102.04 44.4939ZM104.677 44.613L104.885 45.1325L104.893 45.1292L104.901 45.1256L104.677 44.613ZM104.609 43.9666L104.467 44.5077L104.473 44.5094L104.609 43.9666ZM103.537 43.7964L103.471 44.352L103.474 44.3524L103.537 43.7964ZM101.598 43.4562L101.449 43.9956L101.46 43.9984L101.598 43.4562ZM100.186 42.6227L99.785 43.0127L99.7906 43.0183L100.186 42.6227ZM100.135 39.2544L99.6901 38.9153L100.135 39.2544ZM101.751 38.1147L101.548 37.5935L101.545 37.5946L101.751 38.1147ZM106.412 37.8935L106.301 38.4419L106.311 38.4439L106.412 37.8935ZM108.147 38.4549L108.664 38.6699L108.861 38.1969L108.407 37.9593L108.147 38.4549ZM107.093 40.9896L106.821 41.4787L107.369 41.7829L107.609 41.2045L107.093 40.9896ZM103.486 41.0746L103.326 41.6106L103.338 41.6143L103.351 41.6175L103.486 41.0746ZM104.558 41.2448L104.624 40.6892L104.623 40.689L104.558 41.2448ZM106.48 41.602L106.328 42.1404L106.331 42.1413L106.48 41.602ZM107.875 42.4355L107.474 42.8256L107.48 42.8312L107.875 42.4355ZM107.943 45.7697L108.388 46.1088L107.943 45.7697ZM106.31 46.9095L106.514 47.4307L106.31 46.9095ZM103.674 46.7753C102.92 46.7753 102.178 46.6946 101.447 46.5332L101.205 47.626C102.016 47.8049 102.839 47.8943 103.674 47.8943V46.7753ZM101.447 46.5332C100.708 46.3704 100.143 46.1652 99.7323 45.9304L99.1771 46.902C99.7188 47.2115 100.401 47.4486 101.205 47.626L101.447 46.5332ZM99.9713 46.6311L101.026 44.0965L99.9929 43.6665L98.9382 46.2012L99.9713 46.6311ZM100.22 44.3602C100.707 44.6552 101.272 44.8784 101.905 45.0367L102.176 43.9511C101.63 43.8145 101.174 43.6294 100.799 43.4028L100.22 44.3602ZM101.905 45.0367C102.535 45.1942 103.153 45.2746 103.759 45.2746V44.1555C103.253 44.1555 102.726 44.0885 102.176 43.9511L101.905 45.0367ZM103.759 45.2746C104.199 45.2746 104.604 45.2448 104.885 45.1325L104.469 44.0935C104.41 44.1173 104.203 44.1555 103.759 44.1555V45.2746ZM104.901 45.1256C105.203 44.9937 105.509 44.7213 105.509 44.2728H104.39C104.39 44.2513 104.393 44.2235 104.404 44.1931C104.415 44.1626 104.429 44.1375 104.444 44.1189C104.472 44.0838 104.489 44.0844 104.453 44.1004L104.901 45.1256ZM105.509 44.2728C105.509 44.0342 105.409 43.8227 105.239 43.6697C105.087 43.5335 104.904 43.4635 104.745 43.4237L104.473 44.5094C104.541 44.5263 104.528 44.5357 104.49 44.5015C104.468 44.4814 104.44 44.4487 104.419 44.4022C104.397 44.3553 104.39 44.3096 104.39 44.2728H105.509ZM104.752 43.4255C104.494 43.3576 104.102 43.2974 103.601 43.2405L103.474 44.3524C103.971 44.4089 104.294 44.4621 104.467 44.5077L104.752 43.4255ZM103.604 43.2409C102.86 43.152 102.239 43.0423 101.737 42.9141L101.46 43.9984C102.024 44.1423 102.696 44.2594 103.471 44.352L103.604 43.2409ZM101.747 42.9169C101.312 42.7964 100.925 42.5701 100.582 42.227L99.7906 43.0183C100.264 43.4918 100.819 43.8211 101.449 43.9955L101.747 42.9169ZM100.587 42.2326C100.322 41.9599 100.15 41.5348 100.15 40.8705H99.0313C99.0313 41.7259 99.2563 42.4689 99.785 43.0127L100.587 42.2326ZM100.15 40.8705C100.15 40.3915 100.292 39.972 100.58 39.5935L99.6901 38.9153C99.2527 39.4895 99.0313 40.1474 99.0313 40.8705H100.15ZM100.58 39.5935C100.866 39.218 101.311 38.8912 101.958 38.6348L101.545 37.5946C100.762 37.9052 100.13 38.3382 99.6901 38.9153L100.58 39.5935ZM101.955 38.6359C102.6 38.3839 103.395 38.2489 104.354 38.2489V37.1299C103.295 37.1299 102.354 37.2784 101.548 37.5935L101.955 38.6359ZM104.354 38.2489C105.021 38.2489 105.67 38.3134 106.301 38.4418L106.524 37.3452C105.817 37.2015 105.093 37.1299 104.354 37.1299V38.2489ZM106.311 38.4439C106.952 38.5612 107.473 38.7334 107.888 38.9505L108.407 37.9593C107.869 37.6774 107.234 37.4753 106.513 37.3432L106.311 38.4439ZM107.631 38.24L106.576 40.7746L107.609 41.2045L108.664 38.6699L107.631 38.24ZM107.365 40.5005C106.461 39.9986 105.471 39.7496 104.405 39.7496V40.8687C105.29 40.8687 106.091 41.0733 106.821 41.4787L107.365 40.5005ZM104.405 39.7496C103.968 39.7496 103.576 39.7861 103.275 39.8918C103.122 39.9456 102.954 40.0304 102.819 40.1728C102.672 40.3282 102.587 40.5291 102.587 40.7514H103.706C103.706 40.8263 103.673 40.8982 103.631 40.943C103.601 40.9749 103.59 40.9675 103.646 40.9476C103.765 40.9059 104.003 40.8687 104.405 40.8687V39.7496ZM102.587 40.7514C102.587 40.9887 102.686 41.1962 102.846 41.3485C102.991 41.4859 103.168 41.5632 103.326 41.6106L103.647 40.5387C103.578 40.5181 103.585 40.5075 103.617 40.5371C103.635 40.5548 103.66 40.5844 103.679 40.6273C103.698 40.6709 103.706 40.7145 103.706 40.7514H102.587ZM103.351 41.6175C103.615 41.6834 104.002 41.7434 104.493 41.8005L104.623 40.689C104.139 40.6327 103.812 40.5793 103.622 40.5318L103.351 41.6175ZM104.492 41.8003C105.233 41.8889 105.843 42.0034 106.328 42.1404L106.633 41.0636C106.074 40.9057 105.403 40.7821 104.624 40.6892L104.492 41.8003ZM106.331 42.1413C106.766 42.2614 107.144 42.4863 107.474 42.8256L108.276 42.0455C107.812 41.5682 107.261 41.2374 106.63 41.0627L106.331 42.1413ZM107.48 42.8312C107.753 43.1045 107.928 43.5276 107.928 44.1877H109.047C109.047 43.3281 108.814 42.5831 108.271 42.0399L107.48 42.8312ZM107.928 44.1877C107.928 44.639 107.79 45.0481 107.498 45.4307L108.388 46.1088C108.823 45.5388 109.047 44.8932 109.047 44.1877H107.928ZM107.498 45.4307C107.214 45.8041 106.765 46.1312 106.107 46.3883L106.514 47.4307C107.307 47.1208 107.947 46.688 108.388 46.1088L107.498 45.4307ZM106.107 46.3883C105.463 46.6398 104.657 46.7753 103.674 46.7753V47.8943C104.754 47.8943 105.706 47.7463 106.514 47.4307L106.107 46.3883Z" fill="white"/>
</svg>
