<svg width="139" height="28" viewBox="0 0 139 28" fill="none" xmlns="http://www.w3.org/2000/svg">
<path fill-rule="evenodd" clip-rule="evenodd" d="M88.3292 9.37554C86.862 7.90831 84.9137 7.1747 82.4843 7.1747C80.2955 7.1747 78.4434 7.82412 76.9281 9.12298V0.5H68.7741V27.2709H76.9281V17.9985C76.9281 16.6275 77.2047 15.6293 77.7579 15.0039C78.3352 14.3545 79.0808 14.0298 79.9949 14.0298C81.6064 14.0298 82.4122 15.1603 82.4122 17.4213V27.2709H90.5661V16.0142C90.5661 13.0556 89.8205 10.8428 88.3292 9.37554ZM25.7607 13.9576H18.3644V20.3437C17.3782 20.7526 16.344 20.957 15.2616 20.957C13.4336 20.957 11.9663 20.3798 10.8599 19.2252C9.77751 18.0707 9.23632 16.5433 9.23632 14.6431C9.23632 12.6948 9.78954 11.1555 10.896 10.025C12.0024 8.89448 13.4937 8.32924 15.3698 8.32924C17.5586 8.32924 19.4468 9.25527 21.0343 11.1074L26.4823 6.30879C25.1834 4.72129 23.5478 3.51865 21.5755 2.70084C19.6272 1.85899 17.4143 1.43807 14.9369 1.43807C12.1948 1.43807 9.7294 2.00331 7.54059 3.1338C5.37582 4.24023 3.68009 5.80368 2.45339 7.82412C1.25074 9.82052 0.649414 12.0935 0.649414 14.6431C0.649414 17.1928 1.25074 19.4778 2.45339 21.4982C3.68009 23.4946 5.36379 25.0581 7.50451 26.1886C9.64522 27.295 12.0625 27.8482 14.7565 27.8482C16.6567 27.8482 18.5929 27.5716 20.5653 27.0184C22.5376 26.4652 24.2694 25.6714 25.7607 24.6371V13.9576ZM45.913 9.51986C44.085 7.95642 41.4392 7.1747 37.9756 7.1747C36.3881 7.1747 34.7885 7.37914 33.177 7.78804C31.5895 8.17289 30.2305 8.71408 29.1 9.41162L31.6977 14.7875C32.3472 14.3064 33.1289 13.9336 34.0429 13.669C34.9569 13.3804 35.8589 13.236 36.7489 13.236C38.9617 13.236 40.2005 14.0057 40.465 15.5451H37.1818C34.1511 15.5451 31.8902 16.0502 30.3989 17.0605C28.9076 18.0707 28.162 19.5499 28.162 21.4982C28.162 22.6528 28.4386 23.6991 28.9918 24.6371C29.5691 25.5512 30.3989 26.2848 31.4813 26.838C32.5877 27.3671 33.9226 27.6317 35.4861 27.6317C38.2762 27.6317 40.1403 26.6456 41.0784 24.6732V27.2709H48.6551V16.6636C48.6551 13.4405 47.7411 11.0592 45.913 9.51986ZM39.4909 22.2559C39.0339 22.5686 38.5168 22.7249 37.9395 22.7249C37.3382 22.7249 36.8571 22.5806 36.4963 22.292C36.1596 21.9793 35.9912 21.5944 35.9912 21.1374C35.9912 20.031 36.821 19.4778 38.4807 19.4778H40.5011V20.8488C40.2846 21.4742 39.9479 21.9432 39.4909 22.2559ZM66.719 26.5854C65.4923 27.283 63.8206 27.6317 61.704 27.6317C58.9379 27.6317 56.8092 26.9703 55.3179 25.6474C53.8266 24.3004 53.081 22.292 53.081 19.6221V14.571H50.375V8.61787H53.081V3.09772H61.235V8.61787H65.2758V14.571H61.235V19.5499C61.235 20.1513 61.3913 20.6203 61.704 20.957C62.0167 21.2938 62.4256 21.4621 62.9307 21.4621C63.6282 21.4621 64.2416 21.2818 64.7707 20.921L66.719 26.5854ZM115.458 17.3852C115.458 17.5054 115.422 18.1428 115.35 19.2974H101.639C101.928 20.043 102.409 20.6203 103.083 21.0292C103.756 21.414 104.598 21.6065 105.608 21.6065C106.474 21.6065 107.196 21.4982 107.773 21.2818C108.374 21.0653 109.024 20.6925 109.721 20.1633L113.979 24.4567C112.054 26.5734 109.18 27.6317 105.356 27.6317C102.974 27.6317 100.882 27.1988 99.0778 26.3329C97.2738 25.4429 95.8787 24.2162 94.8925 22.6528C93.9064 21.0893 93.4133 19.3335 93.4133 17.3852C93.4133 15.4128 93.8943 13.657 94.8565 12.1176C95.8426 10.5541 97.1776 9.33946 98.8613 8.47355C100.569 7.60765 102.481 7.1747 104.598 7.1747C106.594 7.1747 108.41 7.57157 110.046 8.36532C111.706 9.15906 113.016 10.3256 113.979 11.865C114.965 13.4044 115.458 15.2445 115.458 17.3852ZM104.67 12.7309C103.828 12.7309 103.131 12.9594 102.577 13.4164C102.024 13.8734 101.663 14.5229 101.495 15.3647H107.845C107.677 14.5469 107.316 13.9095 106.763 13.4525C106.209 12.9715 105.512 12.7309 104.67 12.7309ZM126.185 7.53549H118.031V27.2709H126.185V7.53549ZM133.923 17.043C136.481 17.043 138.556 14.9688 138.556 12.4102C138.556 9.85152 136.481 7.77734 133.923 7.77734C131.364 7.77734 129.29 9.85152 129.29 12.4102C129.29 14.9688 131.364 17.043 133.923 17.043Z" fill="white"/>
</svg>
