<svg width="182" height="27" viewBox="0 0 182 27" fill="none" xmlns="http://www.w3.org/2000/svg">
<path fill-rule="evenodd" clip-rule="evenodd" d="M83.4129 5.90625C82.8277 5.90625 82.3 5.78047 81.8297 5.52891C81.3594 5.27188 80.9902 4.91914 80.7223 4.4707C80.4543 4.0168 80.3203 3.51094 80.3203 2.95312C80.3203 2.39531 80.4543 1.89219 80.7223 1.44375C80.9902 0.989844 81.3594 0.637109 81.8297 0.385547C82.3 0.128516 82.8277 0 83.4129 0C83.998 0 84.5258 0.128516 84.9961 0.385547C85.4664 0.637109 85.8355 0.987109 86.1035 1.43555C86.3715 1.88398 86.5055 2.38984 86.5055 2.95312C86.5055 3.51641 86.3715 4.02227 86.1035 4.4707C85.8355 4.91914 85.4664 5.27188 84.9961 5.52891C84.5258 5.78047 83.998 5.90625 83.4129 5.90625ZM83.4129 4.97109C83.7957 4.97109 84.1402 4.88633 84.4465 4.7168C84.7527 4.5418 84.9934 4.30117 85.1684 3.99492C85.3434 3.6832 85.4309 3.33594 85.4309 2.95312C85.4309 2.57031 85.3434 2.22578 85.1684 1.91953C84.9934 1.60781 84.7527 1.36719 84.4465 1.19766C84.1402 1.02266 83.7957 0.935156 83.4129 0.935156C83.0301 0.935156 82.6855 1.02266 82.3793 1.19766C82.073 1.36719 81.8324 1.60781 81.6574 1.91953C81.4824 2.22578 81.3949 2.57031 81.3949 2.95312C81.3949 3.33594 81.4824 3.6832 81.6574 3.99492C81.8324 4.30117 82.073 4.5418 82.3793 4.7168C82.6855 4.88633 83.0301 4.97109 83.4129 4.97109ZM92.8202 0.0820312V5.82422H91.9425L88.7761 1.93594V5.82422H87.7179V0.0820312H88.5956L91.762 3.97031V0.0820312H92.8202ZM98.7475 5.82422V4.93008H95.5073V3.34687H98.28V2.46914H95.5073V0.976172H98.6327V0.0820312H94.4409V5.82422H98.7475ZM100.208 2.75625C100.022 2.75625 99.8635 2.69336 99.7322 2.56758C99.601 2.43633 99.5354 2.27227 99.5354 2.07539C99.5354 1.87305 99.5983 1.70898 99.724 1.5832C99.8553 1.45742 100.017 1.39453 100.208 1.39453C100.399 1.39453 100.558 1.45742 100.684 1.5832C100.815 1.70898 100.881 1.87305 100.881 2.07539C100.881 2.27227 100.815 2.43633 100.684 2.56758C100.553 2.69336 100.394 2.75625 100.208 2.75625ZM100.208 5.88164C100.022 5.88164 99.8635 5.81875 99.7322 5.69297C99.601 5.56172 99.5354 5.39766 99.5354 5.20078C99.5354 4.99844 99.5983 4.83438 99.724 4.70859C99.8553 4.58281 100.017 4.51992 100.208 4.51992C100.399 4.51992 100.558 4.58281 100.684 4.70859C100.815 4.83438 100.881 4.99844 100.881 5.20078C100.881 5.39766 100.815 5.56172 100.684 5.69297C100.553 5.81875 100.394 5.88164 100.208 5.88164ZM103.674 0.607031H105.692V5.82422H106.299V0.607031H108.317V0.0820312H103.674V0.607031ZM113.429 5.29922V5.82422H109.369V0.0820312H113.306V0.607031H109.976V2.64961H112.945V3.16641H109.976V5.29922H113.429ZM114.651 5.82422L115.34 4.29023H118.539L119.228 5.82422H119.868L117.243 0.0820312H116.644L114.019 5.82422H114.651ZM116.94 0.713672L118.318 3.79805H115.562L116.94 0.713672ZM126.864 0.0820312V5.82422H126.281V1.23047L124.026 5.09414H123.738L121.483 1.25508V5.82422H120.9V0.0820312H121.401L123.894 4.33945L126.363 0.0820312H126.864ZM79.9922 11.5312H81.8953V16.3711H82.9617V11.5312H84.8648V10.6289H79.9922V11.5312ZM90.8495 10.6289V16.3711H89.7831V13.9102H86.8136V16.3711H85.7472V10.6289H86.8136V12.9996H89.7831V10.6289H90.8495ZM93.5695 16.0758C94.0398 16.3273 94.5675 16.4531 95.1526 16.4531C95.7378 16.4531 96.2655 16.3273 96.7359 16.0758C97.2062 15.8188 97.5753 15.466 97.8433 15.0176C98.1112 14.5691 98.2452 14.0633 98.2452 13.5C98.2452 12.9367 98.1112 12.4309 97.8433 11.9824C97.5753 11.534 97.2062 11.184 96.7359 10.9324C96.2655 10.6754 95.7378 10.5469 95.1526 10.5469C94.5675 10.5469 94.0398 10.6754 93.5695 10.9324C93.0991 11.184 92.73 11.5367 92.462 11.9906C92.1941 12.4391 92.0601 12.9422 92.0601 13.5C92.0601 14.0578 92.1941 14.5637 92.462 15.0176C92.73 15.466 93.0991 15.8188 93.5695 16.0758ZM96.1862 15.2637C95.88 15.4332 95.5355 15.518 95.1526 15.518C94.7698 15.518 94.4253 15.4332 94.1191 15.2637C93.8128 15.0887 93.5722 14.848 93.3972 14.5418C93.2222 14.2301 93.1347 13.8828 93.1347 13.5C93.1347 13.1172 93.2222 12.7727 93.3972 12.4664C93.5722 12.1547 93.8128 11.9141 94.1191 11.7445C94.4253 11.5695 94.7698 11.482 95.1526 11.482C95.5355 11.482 95.88 11.5695 96.1862 11.7445C96.4925 11.9141 96.7331 12.1547 96.9081 12.4664C97.0831 12.7727 97.1706 13.1172 97.1706 13.5C97.1706 13.8828 97.0831 14.2301 96.9081 14.5418C96.7331 14.848 96.4925 15.0887 96.1862 15.2637ZM101.927 16.4531C101.134 16.4531 100.516 16.2316 100.073 15.7887C99.6299 15.3402 99.4084 14.7004 99.4084 13.8691V10.6289H100.475V13.8281C100.475 14.9547 100.962 15.518 101.935 15.518C102.903 15.518 103.387 14.9547 103.387 13.8281V10.6289H104.437V13.8691C104.437 14.7004 104.215 15.3402 103.772 15.7887C103.335 16.2316 102.72 16.4531 101.927 16.4531ZM106.505 16.2645C106.92 16.3902 107.35 16.4531 107.793 16.4531C108.296 16.4531 108.722 16.3766 109.072 16.2234C109.422 16.0703 109.682 15.8652 109.851 15.6082C110.026 15.3512 110.114 15.0641 110.114 14.7469C110.114 14.375 110.016 14.0797 109.819 13.8609C109.627 13.6422 109.395 13.4809 109.121 13.377C108.848 13.2676 108.498 13.1637 108.071 13.0652C107.76 12.9887 107.514 12.9203 107.333 12.8602C107.153 12.8 107.002 12.718 106.882 12.6141C106.767 12.5102 106.71 12.3762 106.71 12.2121C106.71 11.977 106.811 11.7883 107.013 11.6461C107.221 11.5039 107.535 11.4328 107.957 11.4328C108.214 11.4328 108.479 11.4711 108.752 11.5477C109.026 11.6242 109.288 11.7363 109.54 11.884L109.876 11.0555C109.63 10.8914 109.337 10.7656 108.998 10.6781C108.659 10.5906 108.315 10.5469 107.965 10.5469C107.462 10.5469 107.035 10.6234 106.685 10.7766C106.341 10.9297 106.081 11.1375 105.906 11.4C105.736 11.657 105.651 11.9441 105.651 12.2613C105.651 12.6387 105.747 12.9395 105.939 13.1637C106.135 13.3824 106.368 13.5437 106.636 13.6477C106.909 13.7516 107.265 13.8555 107.702 13.9594C108.014 14.0359 108.26 14.1043 108.441 14.1645C108.621 14.2246 108.769 14.3094 108.884 14.4187C109.004 14.5227 109.064 14.6566 109.064 14.8207C109.064 15.0449 108.957 15.2254 108.744 15.3621C108.536 15.4988 108.219 15.5672 107.793 15.5672C107.448 15.5672 107.103 15.5098 106.759 15.3949C106.42 15.2746 106.133 15.1215 105.898 14.9355L105.528 15.7641C105.769 15.9719 106.094 16.1387 106.505 16.2645ZM112.107 15.0422L111.541 16.3711H110.441L113.025 10.6289H114.075L116.668 16.3711H115.552L114.978 15.0422H112.107ZM114.625 14.2055L113.542 11.6953L112.468 14.2055H114.625ZM122.582 16.3711V10.6289H121.524V14.5172L118.358 10.6289H117.48V16.3711H118.538V12.4828L121.704 16.3711H122.582ZM124.203 10.6289H126.713C127.326 10.6289 127.87 10.7492 128.345 10.9898C128.821 11.225 129.19 11.5613 129.453 11.9988C129.715 12.4309 129.847 12.9313 129.847 13.5C129.847 14.0688 129.715 14.5719 129.453 15.0094C129.19 15.4414 128.821 15.7777 128.345 16.0184C127.87 16.2535 127.326 16.3711 126.713 16.3711H124.203V10.6289ZM126.664 15.4688C127.085 15.4688 127.454 15.3895 127.771 15.2309C128.094 15.0668 128.34 14.8371 128.51 14.5418C128.685 14.241 128.772 13.8938 128.772 13.5C128.772 13.1063 128.685 12.7617 128.51 12.4664C128.34 12.1656 128.094 11.9359 127.771 11.7773C127.454 11.6133 127.085 11.5312 126.664 11.5312H125.269V15.4688H126.664ZM130.816 13.1145C130.947 13.2402 131.106 13.3031 131.292 13.3031C131.478 13.3031 131.636 13.2402 131.768 13.1145C131.899 12.9832 131.964 12.8191 131.964 12.6223C131.964 12.4199 131.899 12.2559 131.768 12.1301C131.642 12.0043 131.483 11.9414 131.292 11.9414C131.1 11.9414 130.939 12.0043 130.808 12.1301C130.682 12.2559 130.619 12.4199 130.619 12.6223C130.619 12.8191 130.685 12.9832 130.816 13.1145ZM130.816 16.2398C130.947 16.3656 131.106 16.4285 131.292 16.4285C131.478 16.4285 131.636 16.3656 131.768 16.2398C131.899 16.1086 131.964 15.9445 131.964 15.7477C131.964 15.5453 131.899 15.3813 131.768 15.2555C131.642 15.1297 131.483 15.0668 131.292 15.0668C131.1 15.0668 130.939 15.1297 130.808 15.2555C130.682 15.3813 130.619 15.5453 130.619 15.7477C130.619 15.9445 130.685 16.1086 130.816 16.2398ZM135.66 10.6289H136.267V16.3711H135.66V10.6289ZM140.555 10.6289H138.217V16.3711H140.555C141.162 16.3711 141.698 16.2508 142.163 16.0102C142.628 15.7641 142.989 15.425 143.246 14.993C143.503 14.5555 143.631 14.0578 143.631 13.5C143.631 12.9422 143.503 12.4473 143.246 12.0152C142.989 11.5777 142.628 11.2387 142.163 10.998C141.698 10.752 141.162 10.6289 140.555 10.6289ZM141.843 15.5508C141.466 15.7477 141.026 15.8461 140.522 15.8461H138.824V11.1539H140.522C141.026 11.1539 141.466 11.2551 141.843 11.4574C142.221 11.6543 142.513 11.9305 142.721 12.2859C142.929 12.6359 143.033 13.0406 143.033 13.5C143.033 13.9594 142.929 14.3668 142.721 14.7223C142.513 15.0723 142.221 15.3484 141.843 15.5508ZM149.137 15.8461V16.3711H145.077V10.6289H149.014V11.1539H145.684V13.1965H148.653V13.7133H145.684V15.8461H149.137ZM150.359 16.3711L151.048 14.8371H154.247L154.936 16.3711H155.576L152.951 10.6289H152.352L149.727 16.3711H150.359ZM152.648 11.2605L154.026 14.3449H151.27L152.648 11.2605ZM158.191 16.4203C157.765 16.4203 157.355 16.352 156.961 16.2152C156.573 16.0785 156.272 15.898 156.058 15.6738L156.296 15.2063C156.504 15.4141 156.78 15.5836 157.125 15.7148C157.469 15.8406 157.825 15.9035 158.191 15.9035C158.705 15.9035 159.091 15.8105 159.348 15.6246C159.605 15.4332 159.733 15.1871 159.733 14.8863C159.733 14.6566 159.662 14.4734 159.52 14.3367C159.383 14.2 159.214 14.0961 159.012 14.025C158.809 13.9484 158.528 13.8664 158.167 13.7789C157.735 13.6695 157.39 13.5656 157.133 13.4672C156.876 13.3633 156.655 13.2074 156.469 12.9996C156.288 12.7918 156.198 12.5102 156.198 12.1547C156.198 11.8648 156.274 11.6023 156.428 11.3672C156.581 11.1266 156.816 10.9352 157.133 10.793C157.45 10.6508 157.844 10.5797 158.314 10.5797C158.642 10.5797 158.962 10.6262 159.274 10.7191C159.591 10.8066 159.865 10.9297 160.094 11.0883L159.889 11.5723C159.649 11.4137 159.392 11.2961 159.118 11.2195C158.845 11.1375 158.577 11.0965 158.314 11.0965C157.811 11.0965 157.431 11.1949 157.174 11.3918C156.923 11.5832 156.797 11.832 156.797 12.1383C156.797 12.368 156.865 12.5539 157.002 12.6961C157.144 12.8328 157.319 12.9395 157.527 13.016C157.74 13.0871 158.024 13.1664 158.38 13.2539C158.801 13.3578 159.14 13.4617 159.397 13.5656C159.66 13.6641 159.881 13.8172 160.062 14.025C160.242 14.2273 160.332 14.5035 160.332 14.8535C160.332 15.1434 160.253 15.4086 160.094 15.6492C159.941 15.8844 159.703 16.073 159.381 16.2152C159.058 16.352 158.662 16.4203 158.191 16.4203ZM85.9969 23.1117L86.0051 26.918H87.0141L87.0059 21.1758H86.1281L83.8887 24.982L81.6082 21.1758H80.7305V26.918H81.7477V23.1609L83.6344 26.2617H84.1102L85.9969 23.1117ZM88.6471 21.1758H89.7135V26.918H88.6471V21.1758ZM92.4151 21.1758H91.3487V26.918H95.4175V26.0156H92.4151V21.1758ZM96.3414 21.1758H97.4078V26.0156H100.41V26.918H96.3414V21.1758ZM102.4 21.1758H101.334V26.918H102.4V21.1758ZM106.718 27C106.133 27 105.605 26.8742 105.135 26.6227C104.665 26.3656 104.295 26.0129 104.027 25.5645C103.759 25.1105 103.626 24.6047 103.626 24.0469C103.626 23.4891 103.759 22.9859 104.027 22.5375C104.295 22.0836 104.665 21.7309 105.135 21.4793C105.605 21.2223 106.133 21.0938 106.718 21.0938C107.303 21.0938 107.831 21.2223 108.301 21.4793C108.772 21.7309 109.141 22.0809 109.409 22.5293C109.677 22.9777 109.811 23.4836 109.811 24.0469C109.811 24.6102 109.677 25.116 109.409 25.5645C109.141 26.0129 108.772 26.3656 108.301 26.6227C107.831 26.8742 107.303 27 106.718 27ZM106.718 26.0648C107.101 26.0648 107.445 25.9801 107.752 25.8105C108.058 25.6355 108.299 25.3949 108.474 25.0887C108.649 24.777 108.736 24.4297 108.736 24.0469C108.736 23.6641 108.649 23.3195 108.474 23.0133C108.299 22.7016 108.058 22.4609 107.752 22.2914C107.445 22.1164 107.101 22.0289 106.718 22.0289C106.335 22.0289 105.991 22.1164 105.685 22.2914C105.378 22.4609 105.138 22.7016 104.963 23.0133C104.788 23.3195 104.7 23.6641 104.7 24.0469C104.7 24.4297 104.788 24.777 104.963 25.0887C105.138 25.3949 105.378 25.6355 105.685 25.8105C105.991 25.9801 106.335 26.0648 106.718 26.0648ZM115.248 26.918H116.125V21.1758H115.067V25.0641L111.901 21.1758H111.023V26.918H112.081V23.0297L115.248 26.918ZM117.976 23.85C117.79 23.85 117.631 23.7871 117.5 23.6613C117.369 23.5301 117.303 23.366 117.303 23.1691C117.303 22.9668 117.366 22.8027 117.492 22.677C117.623 22.5512 117.784 22.4883 117.976 22.4883C118.167 22.4883 118.326 22.5512 118.452 22.677C118.583 22.8027 118.648 22.9668 118.648 23.1691C118.648 23.366 118.583 23.5301 118.452 23.6613C118.32 23.7871 118.162 23.85 117.976 23.85ZM117.976 26.9754C117.79 26.9754 117.631 26.9125 117.5 26.7867C117.369 26.6555 117.303 26.4914 117.303 26.2945C117.303 26.0922 117.366 25.9281 117.492 25.8023C117.623 25.6766 117.784 25.6137 117.976 25.6137C118.167 25.6137 118.326 25.6766 118.452 25.8023C118.583 25.9281 118.648 26.0922 118.648 26.2945C118.648 26.4914 118.583 26.6555 118.452 26.7867C118.32 26.9125 118.162 26.9754 117.976 26.9754ZM126.216 21.7008C125.8 21.3508 125.226 21.1758 124.493 21.1758H122.344V26.918H122.951V25.1051H124.493C125.226 25.1051 125.8 24.9328 126.216 24.5883C126.632 24.2383 126.839 23.757 126.839 23.1445C126.839 22.532 126.632 22.0508 126.216 21.7008ZM125.781 24.2027C125.48 24.4488 125.046 24.5719 124.477 24.5719H122.951V21.7008H124.477C125.046 21.7008 125.48 21.8266 125.781 22.0781C126.082 22.3242 126.232 22.6797 126.232 23.1445C126.232 23.5984 126.082 23.9512 125.781 24.2027ZM130.824 26.9672C130.255 26.9672 129.739 26.8414 129.274 26.5898C128.814 26.3328 128.453 25.9828 128.191 25.5398C127.934 25.0969 127.805 24.5992 127.805 24.0469C127.805 23.4945 127.934 22.9969 128.191 22.5539C128.453 22.1109 128.814 21.7637 129.274 21.5121C129.739 21.2551 130.255 21.1266 130.824 21.1266C131.393 21.1266 131.904 21.2523 132.358 21.5039C132.818 21.7555 133.178 22.1055 133.441 22.5539C133.703 22.9969 133.835 23.4945 133.835 24.0469C133.835 24.5992 133.703 25.0996 133.441 25.548C133.178 25.991 132.818 26.3383 132.358 26.5898C131.904 26.8414 131.393 26.9672 130.824 26.9672ZM130.824 26.4258C131.278 26.4258 131.688 26.3246 132.055 26.1223C132.421 25.9145 132.708 25.6301 132.916 25.2691C133.124 24.9027 133.228 24.4953 133.228 24.0469C133.228 23.5984 133.124 23.1938 132.916 22.8328C132.708 22.4664 132.421 22.182 132.055 21.9797C131.688 21.7719 131.278 21.668 130.824 21.668C130.37 21.668 129.957 21.7719 129.586 21.9797C129.219 22.182 128.929 22.4664 128.716 22.8328C128.508 23.1938 128.404 23.5984 128.404 24.0469C128.404 24.4953 128.508 24.9027 128.716 25.2691C128.929 25.6301 129.219 25.9145 129.586 26.1223C129.957 26.3246 130.37 26.4258 130.824 26.4258ZM135.63 26.7621C136.024 26.8988 136.434 26.9672 136.861 26.9672C137.331 26.9672 137.727 26.8988 138.05 26.7621C138.373 26.6199 138.611 26.4312 138.764 26.1961C138.922 25.9555 139.002 25.6902 139.002 25.4004C139.002 25.0504 138.911 24.7742 138.731 24.5719C138.55 24.3641 138.329 24.2109 138.066 24.1125C137.809 24.0086 137.47 23.9047 137.049 23.8008C136.694 23.7133 136.409 23.634 136.196 23.5629C135.988 23.4863 135.813 23.3797 135.671 23.243C135.534 23.1008 135.466 22.9148 135.466 22.6852C135.466 22.3789 135.592 22.1301 135.843 21.9387C136.1 21.7418 136.481 21.6434 136.984 21.6434C137.246 21.6434 137.514 21.6844 137.788 21.7664C138.061 21.843 138.318 21.9605 138.559 22.1191L138.764 21.6352C138.534 21.4766 138.261 21.3535 137.943 21.266C137.632 21.173 137.312 21.1266 136.984 21.1266C136.513 21.1266 136.12 21.1977 135.802 21.3398C135.485 21.482 135.25 21.6734 135.097 21.9141C134.944 22.1492 134.867 22.4117 134.867 22.7016C134.867 23.057 134.957 23.3387 135.138 23.5465C135.324 23.7543 135.545 23.9102 135.802 24.0141C136.059 24.1125 136.404 24.2164 136.836 24.3258C137.197 24.4133 137.479 24.4953 137.681 24.5719C137.883 24.643 138.053 24.7469 138.19 24.8836C138.332 25.0203 138.403 25.2035 138.403 25.4332C138.403 25.734 138.274 25.9801 138.017 26.1715C137.76 26.3574 137.375 26.4504 136.861 26.4504C136.494 26.4504 136.139 26.3875 135.794 26.2617C135.45 26.1305 135.173 25.9609 134.966 25.7531L134.728 26.2207C134.941 26.4449 135.242 26.6254 135.63 26.7621ZM141.989 26.9672C141.563 26.9672 141.153 26.8988 140.759 26.7621C140.371 26.6254 140.07 26.4449 139.857 26.2207L140.095 25.7531C140.302 25.9609 140.579 26.1305 140.923 26.2617C141.268 26.3875 141.623 26.4504 141.989 26.4504C142.504 26.4504 142.889 26.3574 143.146 26.1715C143.403 25.9801 143.532 25.734 143.532 25.4332C143.532 25.2035 143.461 25.0203 143.318 24.8836C143.182 24.7469 143.012 24.643 142.81 24.5719C142.607 24.4953 142.326 24.4133 141.965 24.3258C141.533 24.2164 141.188 24.1125 140.931 24.0141C140.674 23.9102 140.453 23.7543 140.267 23.5465C140.086 23.3387 139.996 23.057 139.996 22.7016C139.996 22.4117 140.073 22.1492 140.226 21.9141C140.379 21.6734 140.614 21.482 140.931 21.3398C141.248 21.1977 141.642 21.1266 142.113 21.1266C142.441 21.1266 142.761 21.173 143.072 21.266C143.389 21.3535 143.663 21.4766 143.893 21.6352L143.688 22.1191C143.447 21.9605 143.19 21.843 142.916 21.7664C142.643 21.6844 142.375 21.6434 142.113 21.6434C141.609 21.6434 141.229 21.7418 140.972 21.9387C140.721 22.1301 140.595 22.3789 140.595 22.6852C140.595 22.9148 140.663 23.1008 140.8 23.243C140.942 23.3797 141.117 23.4863 141.325 23.5629C141.538 23.634 141.823 23.7133 142.178 23.8008C142.599 23.9047 142.938 24.0086 143.195 24.1125C143.458 24.2109 143.679 24.3641 143.86 24.5719C144.04 24.7742 144.13 25.0504 144.13 25.4004C144.13 25.6902 144.051 25.9555 143.893 26.1961C143.739 26.4312 143.502 26.6199 143.179 26.7621C142.856 26.8988 142.46 26.9672 141.989 26.9672ZM146.142 21.1758H145.535V26.918H146.142V21.1758ZM151.71 23.9566C152.087 24.0387 152.377 24.2027 152.58 24.4488C152.787 24.6895 152.891 25.0012 152.891 25.384C152.891 25.8762 152.708 26.2562 152.342 26.5242C151.981 26.7867 151.445 26.918 150.734 26.918H148.093V21.1758H150.57C151.21 21.1758 151.705 21.3043 152.055 21.5613C152.41 21.8184 152.588 22.182 152.588 22.6523C152.588 22.9695 152.509 23.2402 152.35 23.4645C152.197 23.6832 151.984 23.8473 151.71 23.9566ZM148.7 21.6762V23.7598H150.529C150.994 23.7598 151.352 23.6723 151.603 23.4973C151.855 23.3168 151.981 23.057 151.981 22.718C151.981 22.3789 151.855 22.1219 151.603 21.9469C151.352 21.7664 150.994 21.6762 150.529 21.6762H148.7ZM150.726 26.4176C151.24 26.4176 151.628 26.3301 151.891 26.1551C152.153 25.9801 152.284 25.7066 152.284 25.3348C152.284 24.6184 151.765 24.2602 150.726 24.2602H148.7V26.4176H150.726ZM154.966 21.1758H154.359V26.918H154.966V21.1758ZM156.916 21.1758H157.523V26.393H160.739V26.918H156.916V21.1758ZM162.436 21.1758H161.829V26.918H162.436V21.1758ZM165.502 21.7008H163.484V21.1758H168.127V21.7008H166.109V26.918H165.502V21.7008ZM169.786 21.1758H169.179V26.918H169.786V21.1758ZM175.797 26.393V26.918H171.736V21.1758H175.674V21.7008H172.343V23.7434H175.313V24.2602H172.343V26.393H175.797ZM177.658 26.7621C178.052 26.8988 178.462 26.9672 178.889 26.9672C179.359 26.9672 179.756 26.8988 180.078 26.7621C180.401 26.6199 180.639 26.4312 180.792 26.1961C180.951 25.9555 181.03 25.6902 181.03 25.4004C181.03 25.0504 180.94 24.7742 180.759 24.5719C180.579 24.3641 180.357 24.2109 180.095 24.1125C179.838 24.0086 179.499 23.9047 179.077 23.8008C178.722 23.7133 178.438 23.634 178.224 23.5629C178.017 23.4863 177.842 23.3797 177.699 23.243C177.563 23.1008 177.494 22.9148 177.494 22.6852C177.494 22.3789 177.62 22.1301 177.872 21.9387C178.129 21.7418 178.509 21.6434 179.012 21.6434C179.274 21.6434 179.542 21.6844 179.816 21.7664C180.089 21.843 180.346 21.9605 180.587 22.1191L180.792 21.6352C180.562 21.4766 180.289 21.3535 179.972 21.266C179.66 21.173 179.34 21.1266 179.012 21.1266C178.542 21.1266 178.148 21.1977 177.831 21.3398C177.513 21.482 177.278 21.6734 177.125 21.9141C176.972 22.1492 176.895 22.4117 176.895 22.7016C176.895 23.057 176.986 23.3387 177.166 23.5465C177.352 23.7543 177.574 23.9102 177.831 24.0141C178.088 24.1125 178.432 24.2164 178.864 24.3258C179.225 24.4133 179.507 24.4953 179.709 24.5719C179.911 24.643 180.081 24.7469 180.218 24.8836C180.36 25.0203 180.431 25.2035 180.431 25.4332C180.431 25.734 180.302 25.9801 180.045 26.1715C179.788 26.3574 179.403 26.4504 178.889 26.4504C178.522 26.4504 178.167 26.3875 177.822 26.2617C177.478 26.1305 177.202 25.9609 176.994 25.7531L176.756 26.2207C176.969 26.4449 177.27 26.6254 177.658 26.7621ZM12.5852 0.375061V26.6251H5.16016V6.11256H0.285156V0.375061H12.5852ZM23.8454 6.26256H15.7829V0.375061H39.2954V6.26256H31.2704V26.6251H23.8454V6.26256ZM66.0616 12.7126L66.1366 26.6251H72.9616L72.8866 0.375061H66.7741L57.7741 15.5251L48.5491 0.375061H42.4366V26.6251H49.2991V13.0876L56.0116 24.0376H59.3116L66.0616 12.7126Z" fill="#F9F9FB"/>
</svg>
