<svg width="36" height="37" viewBox="0 0 36 37" fill="none" xmlns="http://www.w3.org/2000/svg">
<path d="M24 32.0679V29.0679C24 27.4766 23.3679 25.9504 22.2426 24.8252C21.1174 23.7 19.5913 23.0679 18 23.0679H9C7.4087 23.0679 5.88258 23.7 4.75736 24.8252C3.63214 25.9504 3 27.4766 3 29.0679V32.0679" stroke="#A3D3FF" stroke-width="2" stroke-linecap="round" stroke-linejoin="round"/>
<path d="M13.5 17.0679C16.8137 17.0679 19.5 14.3816 19.5 11.0679C19.5 7.75416 16.8137 5.06787 13.5 5.06787C10.1863 5.06787 7.5 7.75416 7.5 11.0679C7.5 14.3816 10.1863 17.0679 13.5 17.0679Z" stroke="#A3D3FF" stroke-width="2" stroke-linecap="round" stroke-linejoin="round"/>
<path d="M33 32.0678V29.0678C32.999 27.7384 32.5565 26.447 31.742 25.3963C30.9276 24.3456 29.7872 23.5952 28.5 23.2628" stroke="#A3D3FF" stroke-width="2" stroke-linecap="round" stroke-linejoin="round"/>
<path d="M24 5.26282C25.2906 5.59327 26.4346 6.34387 27.2515 7.39628C28.0684 8.4487 28.5118 9.74306 28.5118 11.0753C28.5118 12.4076 28.0684 13.7019 27.2515 14.7544C26.4346 15.8068 25.2906 16.5574 24 16.8878" stroke="#A3D3FF" stroke-width="2" stroke-linecap="round" stroke-linejoin="round"/>
</svg>
