<svg width="36" height="37" viewBox="0 0 36 37" fill="none" xmlns="http://www.w3.org/2000/svg">
<path d="M31.8156 24.403C30.8613 26.6597 29.3688 28.6483 27.4684 30.1949C25.5681 31.7416 23.3178 32.7991 20.9143 33.2752C18.5108 33.7512 16.0272 33.6312 13.6808 32.9257C11.3344 32.2202 9.19654 30.9506 7.45413 29.228C5.71173 27.5053 4.41783 25.3821 3.68556 23.0439C2.95329 20.7057 2.80495 18.2237 3.2535 15.8149C3.70206 13.4062 4.73385 11.1439 6.25867 9.22603C7.7835 7.30814 9.75493 5.79296 12.0006 4.81299" stroke="#B094FE" stroke-width="2" stroke-linecap="round" stroke-linejoin="round"/>
<path d="M33 18.5679C33 16.598 32.612 14.6475 31.8582 12.8276C31.1044 11.0077 29.9995 9.35415 28.6066 7.96127C27.2137 6.56839 25.5601 5.4635 23.7403 4.70968C21.9204 3.95586 19.9698 3.56787 18 3.56787V18.5679H33Z" stroke="#B094FE" stroke-width="2" stroke-linecap="round" stroke-linejoin="round"/>
</svg>
