<svg width="139" height="28" viewBox="0 0 139 28" fill="none" xmlns="http://www.w3.org/2000/svg">
<path fill-rule="evenodd" clip-rule="evenodd" d="M87.7853 9.0982C86.318 7.63097 84.3697 6.89735 81.9404 6.89735C79.7516 6.89735 77.8995 7.54678 76.3842 8.84564V0.222656H68.2302V26.9936H76.3842V17.7212C76.3842 16.3502 76.6608 15.352 77.214 14.7266C77.7913 14.0772 78.5369 13.7524 79.4509 13.7524C81.0625 13.7524 81.8682 14.8829 81.8682 17.1439V26.9936H90.0222V15.7368C90.0222 12.7783 89.2765 10.5654 87.7853 9.0982ZM25.2168 13.6803H17.8205V20.0663C16.8343 20.4752 15.8 20.6797 14.7176 20.6797C12.8896 20.6797 11.4224 20.1024 10.3159 18.9479C9.23357 17.7933 8.69237 16.266 8.69237 14.3658C8.69237 12.4175 9.24559 10.8781 10.352 9.74763C11.4585 8.61714 12.9497 8.05189 14.8259 8.05189C17.0147 8.05189 18.9029 8.97793 20.4903 10.83L25.9383 6.03144C24.6395 4.44395 23.0039 3.2413 21.0315 2.4235C19.0833 1.58165 16.8704 1.16072 14.3929 1.16072C11.6509 1.16072 9.18546 1.72597 6.99664 2.85645C4.83187 3.96289 3.13614 5.52633 1.90944 7.54678C0.706793 9.54318 0.105469 11.8162 0.105469 14.3658C0.105469 16.9154 0.706793 19.2004 1.90944 21.2209C3.13614 23.2173 4.81985 24.7807 6.96056 25.9112C9.10127 27.0176 11.5186 27.5709 14.2125 27.5709C16.1127 27.5709 18.049 27.2943 20.0213 26.741C21.9937 26.1878 23.7255 25.3941 25.2168 24.3598V13.6803ZM45.3691 9.24251C43.5411 7.67907 40.8952 6.89735 37.4316 6.89735C35.8441 6.89735 34.2446 7.1018 32.633 7.5107C31.0456 7.89555 29.6866 8.43674 28.5561 9.13427L31.1538 14.5101C31.8032 14.0291 32.5849 13.6562 33.499 13.3916C34.413 13.103 35.315 12.9587 36.2049 12.9587C38.4178 12.9587 39.6565 13.7284 39.9211 15.2678H36.6379C33.6072 15.2678 31.3462 15.7729 29.8549 16.7831C28.3636 17.7933 27.618 19.2726 27.618 21.2209C27.618 22.3754 27.8946 23.4217 28.4478 24.3598C29.0251 25.2738 29.8549 26.0074 30.9373 26.5606C32.0438 27.0898 33.3787 27.3544 34.9421 27.3544C37.7323 27.3544 39.5964 26.3682 40.5344 24.3959V26.9936H48.1111V16.3862C48.1111 13.1631 47.1971 10.7819 45.3691 9.24251ZM38.9469 21.9786C38.4899 22.2912 37.9728 22.4476 37.3955 22.4476C36.7942 22.4476 36.3132 22.3033 35.9524 22.0146C35.6156 21.7019 35.4472 21.3171 35.4472 20.8601C35.4472 19.7537 36.2771 19.2004 37.9367 19.2004H39.9572V20.5715C39.7407 21.1968 39.404 21.6659 38.9469 21.9786ZM66.1751 26.3081C64.9484 27.0056 63.2767 27.3544 61.16 27.3544C58.394 27.3544 56.2653 26.6929 54.774 25.37C53.2827 24.0231 52.5371 22.0146 52.5371 19.3448V14.2936H49.8311V8.34053H52.5371V2.82038H60.691V8.34053H64.7319V14.2936H60.691V19.2726C60.691 19.8739 60.8474 20.343 61.16 20.6797C61.4727 21.0164 61.8816 21.1848 62.3867 21.1848C63.0843 21.1848 63.6976 21.0044 64.2268 20.6436L66.1751 26.3081ZM114.914 17.1078C114.914 17.2281 114.878 17.8655 114.806 19.02H101.095C101.384 19.7657 101.865 20.343 102.539 20.7519C103.212 21.1367 104.054 21.3291 105.064 21.3291C105.93 21.3291 106.652 21.2209 107.229 21.0044C107.83 20.7879 108.48 20.4151 109.177 19.8859L113.435 24.1794C111.51 26.2961 108.636 27.3544 104.812 27.3544C102.43 27.3544 100.338 26.9214 98.5338 26.0555C96.7299 25.1656 95.3348 23.9389 94.3486 22.3754C93.3624 20.812 92.8693 19.0561 92.8693 17.1078C92.8693 15.1355 93.3504 13.3796 94.3125 11.8402C95.2987 10.2768 96.6336 9.06212 98.3173 8.19621C100.025 7.3303 101.937 6.89735 104.054 6.89735C106.05 6.89735 107.866 7.29422 109.502 8.08797C111.162 8.88172 112.473 10.0483 113.435 11.5877C114.421 13.1271 114.914 14.9671 114.914 17.1078ZM104.126 12.4536C103.284 12.4536 102.587 12.6821 102.034 13.1391C101.48 13.5961 101.12 14.2455 100.951 15.0874H107.301C107.133 14.2696 106.772 13.6322 106.219 13.1752C105.666 12.6941 104.968 12.4536 104.126 12.4536ZM125.641 7.25814H117.487V26.9936H125.641V7.25814ZM133.379 16.7656C135.938 16.7656 138.012 14.6914 138.012 12.1328C138.012 9.57418 135.938 7.5 133.379 7.5C130.82 7.5 128.746 9.57418 128.746 12.1328C128.746 14.6914 130.82 16.7656 133.379 16.7656Z" fill="white"/>
</svg>
