<svg width="36" height="37" viewBox="0 0 36 37" fill="none" xmlns="http://www.w3.org/2000/svg">
<path d="M13.5 27.5679H22.5" stroke="#F7D8AA" stroke-width="2" stroke-linecap="round" stroke-linejoin="round"/>
<path d="M15.002 33.5676H21.002" stroke="#F7D8AA" stroke-width="2" stroke-linecap="round" stroke-linejoin="round"/>
<path d="M22.635 21.5679C22.905 20.0979 23.61 18.9579 24.75 17.8179C25.4743 17.1511 26.0492 16.3386 26.437 15.4337C26.8248 14.5289 27.0167 13.5522 27 12.5679C27 10.1809 26.0518 7.89174 24.364 6.20391C22.6761 4.51608 20.3869 3.56787 18 3.56787C15.6131 3.56787 13.3239 4.51608 11.636 6.20391C9.94821 7.89174 9 10.1809 9 12.5679C9 14.0679 9.345 15.9129 11.25 17.8179C12.3361 18.811 13.077 20.1247 13.365 21.5679" stroke="#F7D8AA" stroke-width="2" stroke-linecap="round" stroke-linejoin="round"/>
</svg>
