<svg width="36" height="37" viewBox="0 0 36 37" fill="none" xmlns="http://www.w3.org/2000/svg">
<path d="M30 9.56787H6C4.34315 9.56787 3 10.911 3 12.5679V24.5679C3 26.2247 4.34315 27.5679 6 27.5679H30C31.6568 27.5679 33 26.2247 33 24.5679V12.5679C33 10.911 31.6568 9.56787 30 9.56787Z" stroke="#7BE0C2" stroke-width="2" stroke-linecap="round" stroke-linejoin="round"/>
<path d="M18 21.5679C19.6569 21.5679 21 20.2247 21 18.5679C21 16.911 19.6569 15.5679 18 15.5679C16.3431 15.5679 15 16.911 15 18.5679C15 20.2247 16.3431 21.5679 18 21.5679Z" stroke="#7BE0C2" stroke-width="2" stroke-linecap="round" stroke-linejoin="round"/>
<path d="M9 18.5679H9.015M27 18.5679H27.015" stroke="#7BE0C2" stroke-width="2" stroke-linecap="round" stroke-linejoin="round"/>
</svg>
