<svg width="88" height="47" viewBox="0 0 88 47" fill="none" xmlns="http://www.w3.org/2000/svg">
<path fill-rule="evenodd" clip-rule="evenodd" d="M28.41 28.7303V0.222656H19.0432V13.1733L8.21026 0.222656H0.30957V28.7303H9.67637V15.7797L20.5093 28.7303H28.41ZM42.0593 12.3588V7.47174H55.6208V0.222656H32.4481V28.7303H42.0593V19.6079H53.951V12.3588H42.0593ZM74.0413 0.222656V28.7303H64.4301V7.47174H59.5431V0.222656H74.0413ZM87.75 5.33496C87.75 8.15841 85.4611 10.4473 82.6377 10.4473C79.8142 10.4473 77.5254 8.15841 77.5254 5.33496C77.5254 2.51151 79.8142 0.222656 82.6377 0.222656C85.4611 0.222656 87.75 2.51151 87.75 5.33496ZM0.379883 39.9497C0.379883 41.1308 0.659275 42.2018 1.22505 43.1523L1.22788 43.157C1.80308 44.0931 2.59344 44.8257 3.59088 45.3524L3.59392 45.354C4.59288 45.8703 5.70912 46.1247 6.93435 46.1247C8.05554 46.1247 9.07041 45.9267 9.97124 45.5213C10.8717 45.1161 11.6191 44.528 12.2074 43.7587L12.4259 43.4729L9.49459 40.8563L9.2389 41.1789C8.61186 41.9699 7.91015 42.3283 7.12408 42.3283C6.43486 42.3283 5.91501 42.1136 5.5244 41.7064C5.13238 41.2874 4.91933 40.7158 4.91933 39.9497C4.91933 39.1822 5.133 38.6176 5.52303 38.2102L5.52582 38.2072C5.91723 37.7897 6.43663 37.571 7.12408 37.571C7.91015 37.571 8.61186 37.9294 9.2389 38.7204L9.49459 39.043L12.4259 36.4264L12.2074 36.1406C11.6191 35.3714 10.8717 34.7832 9.97124 34.378C9.07041 33.9727 8.05554 33.7747 6.93435 33.7747C5.7084 33.7747 4.59157 34.0346 3.5924 34.5619C2.5929 35.0788 1.80188 35.8127 1.2268 36.7599L1.22611 36.7611C0.659268 37.702 0.379883 38.7686 0.379883 39.9497ZM4.5311 39.9497C4.5311 40.7929 4.76826 41.4675 5.24259 41.9734C5.71691 42.4689 6.34408 42.7166 7.12408 42.7166C7.93966 42.7166 8.66153 42.3825 9.28968 41.7142C9.37593 41.6225 9.46042 41.5244 9.54314 41.4201L11.899 43.5229C11.3508 44.2397 10.6552 44.7878 9.81192 45.1672C8.96868 45.5467 8.00949 45.7364 6.93435 45.7364C5.76435 45.7364 4.71029 45.494 3.77218 45.0091C2.83407 44.5137 2.09623 43.8286 1.55866 42.9537C1.03163 42.0683 0.768115 41.067 0.768115 39.9497C0.768115 38.8324 1.03163 37.8363 1.55866 36.9614C2.09623 36.076 2.83407 35.3909 3.77218 34.906C4.71029 34.4106 5.76435 34.1629 6.93435 34.1629C8.00949 34.1629 8.96868 34.3526 9.81192 34.7321C10.6552 35.1115 11.3508 35.6597 11.899 36.3764L9.54314 38.4793C9.46042 38.3749 9.37593 38.2768 9.28968 38.1851C8.66153 37.5169 7.93966 37.1828 7.12408 37.1828C6.34408 37.1828 5.71691 37.4357 5.24259 37.9417C4.76826 38.4371 4.5311 39.1064 4.5311 39.9497ZM12.655 43.6849C13.1265 44.421 13.7753 44.9985 14.5911 45.4177L14.5968 45.4206C15.4257 45.8293 16.3498 46.0298 17.3615 46.0298C18.3828 46.0298 19.308 45.8297 20.1281 45.4196L20.13 45.4187C20.9568 44.9996 21.6077 44.4211 22.07 43.6818C22.5435 42.9307 22.7776 42.0835 22.7776 41.1513C22.7776 40.2201 22.544 39.3778 22.0699 38.6365C21.6077 37.8867 20.9561 37.3073 20.1271 36.8983C19.3073 36.4886 18.3824 36.2886 17.3615 36.2886C16.3498 36.2886 15.4257 36.489 14.5968 36.8978L14.5949 36.8988C13.7761 37.3081 13.126 37.8872 12.6542 38.6346C12.1794 39.3764 11.9454 40.2193 11.9454 41.1513C11.9454 42.0838 12.1796 42.9313 12.6535 43.6826L12.655 43.6849ZM22.3893 41.1513C22.3893 42.0156 22.1733 42.7903 21.7411 43.4755C21.3195 44.1501 20.7239 44.6824 19.9545 45.0724C19.1955 45.4518 18.3312 45.6416 17.3615 45.6416C16.4023 45.6416 15.538 45.4518 14.7685 45.0724C14.0096 44.6824 13.414 44.1501 12.9819 43.4755C12.5497 42.7903 12.3336 42.0156 12.3336 41.1513C12.3336 40.287 12.5497 39.5175 12.9819 38.8429C13.414 38.1578 14.0096 37.6255 14.7685 37.246C15.538 36.8665 16.4023 36.6768 17.3615 36.6768C18.3312 36.6768 19.1955 36.8665 19.9545 37.246C20.7239 37.6255 21.3195 38.1578 21.7411 38.8429C22.1733 39.5175 22.3893 40.287 22.3893 41.1513ZM18.7686 41.1513C18.7686 41.6889 18.6369 42.1105 18.3734 42.4162C18.1099 42.7113 17.7726 42.8589 17.3615 42.8589C16.9504 42.8589 16.6131 42.7113 16.3496 42.4162C16.0861 42.1105 15.9543 41.6889 15.9543 41.1513C15.9543 40.6137 16.0861 40.1974 16.3496 39.9022C16.6131 39.6071 16.9504 39.4595 17.3615 39.4595C17.7726 39.4595 18.1099 39.6071 18.3734 39.9022C18.6369 40.1974 18.7686 40.6137 18.7686 41.1513ZM18.0815 42.1601C17.8953 42.3675 17.6656 42.4706 17.3615 42.4706C17.0573 42.4706 16.8277 42.3675 16.6415 42.1601C16.4577 41.9455 16.3425 41.6252 16.3425 41.1513C16.3425 40.6746 16.4589 40.3627 16.6392 40.1608C16.8258 39.9517 17.0561 39.8478 17.3615 39.8478C17.6669 39.8478 17.8971 39.9517 18.0838 40.1608C18.264 40.3627 18.3804 40.6746 18.3804 41.1513C18.3804 41.6252 18.2653 41.9455 18.0815 42.1601ZM27.0651 37.6413C27.1882 37.5182 27.3176 37.407 27.4534 37.3075C28.0271 36.887 28.7146 36.6768 29.5158 36.6768C30.0956 36.6768 30.6173 36.7875 31.0811 37.0088C31.4268 37.166 31.7257 37.3876 31.9777 37.6736C32.0638 37.7713 32.1444 37.8764 32.2195 37.9891C32.305 37.8855 32.395 37.7879 32.4894 37.6963C32.7791 37.4155 33.1107 37.1916 33.4844 37.0247C33.9798 36.7928 34.5226 36.6768 35.1129 36.6768C36.1564 36.6768 36.9891 36.9983 37.611 37.6413C38.2434 38.2843 38.5596 39.254 38.5596 40.5505V45.4835H34.9864V41.1671C34.9864 40.1763 34.6649 39.6809 34.0219 39.6809C33.6846 39.6809 33.4106 39.8074 33.1998 40.0603C32.9995 40.3133 32.8994 40.7139 32.8994 41.262V45.4835H29.3261V41.1671C29.3261 40.1763 29.0046 39.6809 28.3616 39.6809C28.0243 39.6809 27.7503 39.8074 27.5395 40.0603C27.3392 40.3133 27.2391 40.7139 27.2391 41.262V45.4835H23.6658V36.8349H27.0651V37.6413ZM27.4534 36.4467V36.8394C28.0487 36.4708 28.7401 36.2886 29.5158 36.2886C30.1447 36.2886 30.7236 36.4087 31.245 36.6569C31.6307 36.8327 31.9648 37.0788 32.2463 37.3915C32.5611 37.0922 32.9204 36.8518 33.3229 36.6716C33.8729 36.4147 34.4715 36.2886 35.1129 36.2886C36.242 36.2886 37.1818 36.6397 37.8889 37.3702C38.6181 38.1124 38.9479 39.1975 38.9479 40.5505V45.8717H34.5982V41.1671C34.5982 40.7013 34.5203 40.419 34.4196 40.2638C34.3377 40.1375 34.2258 40.0691 34.0219 40.0691C33.7984 40.0691 33.6356 40.1456 33.5013 40.305C33.3832 40.4569 33.2876 40.75 33.2876 41.262V45.8717H28.9379V41.1671C28.9379 40.7013 28.86 40.419 28.7593 40.2638C28.6774 40.1375 28.5655 40.0691 28.3616 40.0691C28.1381 40.0691 27.9754 40.1456 27.841 40.305C27.7229 40.4569 27.6273 40.75 27.6273 41.262V45.8717H23.2776V36.4467H27.4534ZM43.6672 37.6413C43.7902 37.5182 43.9196 37.407 44.0554 37.3075C44.6292 36.887 45.3166 36.6768 46.1178 36.6768C46.6976 36.6768 47.2193 36.7875 47.6831 37.0088C48.0289 37.166 48.3277 37.3876 48.5798 37.6736C48.6658 37.7713 48.7464 37.8764 48.8215 37.9891C48.907 37.8855 48.997 37.7879 49.0914 37.6963C49.3811 37.4155 49.7127 37.1916 50.0864 37.0247C50.5818 36.7928 51.1246 36.6768 51.7149 36.6768C52.7584 36.6768 53.5911 36.9983 54.213 37.6413C54.8454 38.2843 55.1617 39.254 55.1617 40.5505V45.4835H51.5884V41.1671C51.5884 40.1763 51.2669 39.6809 50.6239 39.6809C50.2866 39.6809 50.0126 39.8074 49.8018 40.0603C49.6015 40.3133 49.5014 40.7139 49.5014 41.262V45.4835H45.9281V41.1671C45.9281 40.1763 45.6066 39.6809 44.9636 39.6809C44.6264 39.6809 44.3523 39.8074 44.1415 40.0603C43.9412 40.3133 43.8411 40.7139 43.8411 41.262V45.4835H40.2678V36.8349H43.6672V37.6413ZM44.0554 36.4467V36.8394C44.6508 36.4708 45.3421 36.2886 46.1178 36.2886C46.7467 36.2886 47.3256 36.4087 47.8471 36.6569C48.2327 36.8328 48.5669 37.0788 48.8484 37.3915C49.1631 37.0922 49.5224 36.8518 49.9249 36.6716C50.4749 36.4147 51.0735 36.2886 51.7149 36.2886C52.844 36.2886 53.7838 36.6397 54.4909 37.3702C55.2202 38.1124 55.5499 39.1975 55.5499 40.5505V45.8717H51.2002V41.1671C51.2002 40.7013 51.1223 40.419 51.0216 40.2638C50.9397 40.1375 50.8278 40.0691 50.6239 40.0691C50.4004 40.0691 50.2377 40.1456 50.1033 40.305C49.9852 40.4569 49.8896 40.75 49.8896 41.262V45.8717H45.5399V41.1671C45.5399 40.7013 45.4621 40.419 45.3613 40.2638C45.2794 40.1375 45.1675 40.0691 44.9636 40.0691C44.7402 40.0691 44.5774 40.1456 44.443 40.305C44.3249 40.4569 44.2293 40.75 44.2293 41.262V45.8717H39.8796V36.4467H44.0554ZM56.8871 43.6849C57.3586 44.421 58.0074 44.9985 58.8232 45.4177L58.8289 45.4206C59.6578 45.8293 60.5819 46.0298 61.5936 46.0298C62.6149 46.0298 63.5401 45.8297 64.3602 45.4196L64.3621 45.4187C65.1889 44.9996 65.8398 44.4211 66.3021 43.6818C66.7756 42.9307 67.0097 42.0835 67.0097 41.1513C67.0097 40.2201 66.7761 39.3778 66.302 38.6365C65.8399 37.8868 65.1883 37.3074 64.3595 36.8984C63.5396 36.4886 62.6147 36.2886 61.5936 36.2886C60.5819 36.2886 59.6578 36.489 58.8289 36.8978L58.827 36.8988C58.0082 37.3081 57.3581 37.8872 56.8863 38.6346C56.4114 39.3764 56.1775 40.2193 56.1775 41.1513C56.1775 42.0838 56.4117 42.9313 56.8856 43.6826L56.8871 43.6849ZM65.9732 43.4755C65.5516 44.1501 64.956 44.6824 64.1866 45.0724C63.4276 45.4518 62.5633 45.6416 61.5936 45.6416C60.6344 45.6416 59.7701 45.4518 59.0006 45.0724C58.2417 44.6824 57.6461 44.1501 57.214 43.4755C56.7818 42.7903 56.5657 42.0156 56.5657 41.1513C56.5657 40.287 56.7818 39.5175 57.214 38.8429C57.6461 38.1578 58.2417 37.6255 59.0006 37.246C59.7701 36.8665 60.6344 36.6768 61.5936 36.6768C62.5633 36.6768 63.4276 36.8665 64.1866 37.246C64.956 37.6255 65.5516 38.1578 65.9732 38.8429C66.4053 39.5175 66.6214 40.287 66.6214 41.1513C66.6214 42.0156 66.4053 42.7903 65.9732 43.4755ZM62.6125 41.1513C62.6125 41.6251 62.4974 41.9454 62.3136 42.1601C62.1274 42.3675 61.8978 42.4706 61.5936 42.4706C61.2894 42.4706 61.0598 42.3675 60.8736 42.1602C60.6898 41.9455 60.5746 41.6252 60.5746 41.1513C60.5746 40.6746 60.691 40.3627 60.8713 40.1608C61.0579 39.9517 61.2882 39.8478 61.5936 39.8478C61.899 39.8478 62.1292 39.9517 62.3159 40.1608C62.4961 40.3627 62.6125 40.6746 62.6125 41.1513ZM60.1864 41.1513C60.1864 41.6889 60.3182 42.1105 60.5817 42.4162C60.8452 42.7113 61.1825 42.8589 61.5936 42.8589C62.0047 42.8589 62.342 42.7113 62.6055 42.4162C62.869 42.1105 63.0007 41.6889 63.0007 41.1513C63.0007 40.6137 62.869 40.1974 62.6055 39.9022C62.342 39.6071 62.0047 39.4595 61.5936 39.4595C61.1825 39.4595 60.8452 39.6071 60.5817 39.9022C60.3182 40.1974 60.1864 40.6137 60.1864 41.1513ZM72.4672 36.9298C72.1853 37.0372 71.9247 37.1788 71.6855 37.3547C71.5491 37.4549 71.4197 37.5662 71.2972 37.6887V36.8349H67.8979V45.4835H71.4712V41.4201C71.4712 40.8193 71.5924 40.3818 71.8348 40.1078C72.0878 39.8232 72.4145 39.6809 72.8151 39.6809C73.5213 39.6809 73.8744 40.1763 73.8744 41.1671V45.4835H77.4477V40.5505C77.4477 39.254 77.1209 38.2843 76.4674 37.6413C75.8244 36.9983 74.9706 36.6768 73.906 36.6768C73.3895 36.6768 72.91 36.7611 72.4672 36.9298ZM72.329 36.567C72.1022 36.6534 71.8876 36.7598 71.6855 36.8859V36.4467H67.5097V45.8717H71.8594V41.4201C71.8594 40.8579 71.9752 40.5356 72.125 40.3657C72.3001 40.1687 72.5189 40.0691 72.8151 40.0691C73.0658 40.0691 73.2022 40.1498 73.2934 40.2778C73.4019 40.43 73.4862 40.7061 73.4862 41.1671V45.8717H77.8359V40.5505C77.8359 39.1943 77.4939 38.1074 76.7408 37.3656C76.0128 36.6382 75.054 36.2886 73.906 36.2886C73.3466 36.2886 72.8197 36.3801 72.329 36.567ZM79.4125 41.8727L78.13 44.9549L78.4274 45.1249C78.9154 45.4037 79.5359 45.6203 80.2756 45.7835C81.02 45.9477 81.7753 46.0298 82.5411 46.0298C83.5338 46.0298 84.4014 45.8937 85.133 45.6079C85.8544 45.3261 86.4268 44.9363 86.8184 44.4223C87.2053 43.9145 87.4038 43.3423 87.4038 42.7166C87.4038 41.9422 87.1946 41.2884 86.7228 40.8155C86.487 40.5733 86.2266 40.3737 85.9424 40.2179L87.1943 37.2093L86.8795 37.0444C86.3948 36.7905 85.8192 36.6064 85.1603 36.4854C84.5134 36.354 83.851 36.2886 83.1735 36.2886C82.2007 36.2886 81.344 36.425 80.6132 36.7105L80.6113 36.7112C79.8999 36.9935 79.3342 37.3835 78.9436 37.8961C78.5546 38.4067 78.3583 38.9901 78.3583 39.6334C78.3583 40.406 78.5612 41.0591 79.0215 41.5326L79.0254 41.5365C79.1485 41.6596 79.2776 41.7717 79.4125 41.8727ZM85.1499 40.3133C85.6453 40.4503 86.0775 40.7086 86.4464 41.088C86.8259 41.4675 87.0156 42.0103 87.0156 42.7166C87.0156 43.2541 86.8469 43.7443 86.5096 44.187C86.1723 44.6297 85.6664 44.9828 84.9918 45.2463C84.3172 45.5098 83.5003 45.6416 82.5411 45.6416C81.8033 45.6416 81.076 45.5625 80.3592 45.4044C79.6424 45.2463 79.0627 45.0408 78.62 44.7878L79.6003 42.432C79.7092 42.4979 79.8236 42.5599 79.9434 42.618C80.2642 42.7737 80.6242 42.9014 81.0233 43.0012C81.5714 43.1382 82.1037 43.2067 82.6202 43.2067C83.0312 43.2067 83.3158 43.1751 83.4739 43.1118C83.6426 43.038 83.7269 42.9326 83.7269 42.7956C83.7269 42.6586 83.6215 42.5637 83.4107 42.511C83.2104 42.4583 82.8784 42.4056 82.4146 42.3529C81.7084 42.2686 81.1076 42.1632 80.6122 42.0367C80.1168 41.8997 79.6793 41.6414 79.2999 41.262C78.931 40.8825 78.7465 40.3397 78.7465 39.6334C78.7465 39.0748 78.9152 38.5741 79.2524 38.1314C79.5898 37.6887 80.0904 37.3356 80.7545 37.0721C81.4291 36.8086 82.2354 36.6768 83.1735 36.6768C83.8271 36.6768 84.4648 36.7401 85.0867 36.8665C85.7191 36.9825 86.2567 37.1564 86.6994 37.3883L85.7191 39.7441C85.605 39.6807 85.4892 39.6221 85.3718 39.5682C84.7081 39.2639 83.9912 39.1117 83.221 39.1117C82.441 39.1117 82.051 39.2487 82.051 39.5228C82.051 39.6598 82.1564 39.7599 82.3672 39.8232C82.578 39.8759 82.91 39.9286 83.3633 39.9813C84.0695 40.0656 84.665 40.1763 85.1499 40.3133ZM82.3708 42.7387C82.5885 42.7634 82.772 42.7876 82.923 42.8111C82.8367 42.8157 82.7362 42.8185 82.6202 42.8185C82.1382 42.8185 81.6376 42.7546 81.1174 42.6245C80.773 42.5384 80.4645 42.4315 80.1902 42.3053C80.2938 42.3456 80.4 42.3809 80.5087 42.411L80.5161 42.4129C81.033 42.5448 81.6515 42.6528 82.3686 42.7384L82.3708 42.7387ZM83.4081 39.5956C83.1751 39.5686 82.9793 39.542 82.819 39.5162C82.9305 39.5059 83.0637 39.4999 83.221 39.4999C83.9498 39.4999 84.6217 39.6458 85.2416 39.9358C84.7338 39.7934 84.1217 39.6808 83.4093 39.5958L83.4081 39.5956ZM85.2555 39.9397L85.2542 39.9394L85.2529 39.9411L85.2548 39.942L85.2555 39.9397Z" fill="white"/>
</svg>
