<svg width="29" height="29" viewBox="0 0 29 29" fill="none" xmlns="http://www.w3.org/2000/svg">
<path d="M3.73257 4.37095L5.2259 2.87761C5.35717 2.74498 5.51343 2.63969 5.68565 2.56784C5.85787 2.49598 6.04263 2.45898 6.22923 2.45898C6.41584 2.45898 6.6006 2.49598 6.77282 2.56784C6.94503 2.63969 7.1013 2.74498 7.23257 2.87761L26.2259 21.8709C26.3585 22.0022 26.4638 22.1585 26.5357 22.3307C26.6075 22.5029 26.6445 22.6877 26.6445 22.8743C26.6445 23.0609 26.6075 23.2456 26.5357 23.4179C26.4638 23.5901 26.3585 23.7463 26.2259 23.8776L24.7326 25.3709C24.6021 25.505 24.4461 25.6116 24.2738 25.6843C24.1015 25.7571 23.9163 25.7946 23.7292 25.7946C23.5422 25.7946 23.357 25.7571 23.1847 25.6843C23.0124 25.6116 22.8564 25.505 22.7259 25.3709L3.73257 6.37761C3.59851 6.24716 3.49195 6.09116 3.41919 5.91883C3.34644 5.7465 3.30895 5.56134 3.30895 5.37428C3.30895 5.18722 3.34644 5.00206 3.41919 4.82973C3.49195 4.6574 3.59851 4.5014 3.73257 4.37095V4.37095Z" stroke="white" stroke-width="1.5" stroke-linecap="round" stroke-linejoin="round"/>
<path d="M12.6445 8.2912L9.14453 11.7912" stroke="white" stroke-width="1.5" stroke-linecap="round" stroke-linejoin="round"/>
<path d="M23.1445 7.12451V11.7912" stroke="white" stroke-width="1.5" stroke-linecap="round" stroke-linejoin="round"/>
<path d="M6.80859 16.4578V21.1245" stroke="white" stroke-width="1.5" stroke-linecap="round" stroke-linejoin="round"/>
<path d="M17.3086 2.45782V4.79116" stroke="white" stroke-width="1.5" stroke-linecap="round" stroke-linejoin="round"/>
<path d="M20.8099 9.45782H25.4766" stroke="white" stroke-width="1.5" stroke-linecap="round" stroke-linejoin="round"/>
<path d="M4.47787 18.7912H9.14453" stroke="white" stroke-width="1.5" stroke-linecap="round" stroke-linejoin="round"/>
<path d="M16.1432 3.62451H18.4766" stroke="white" stroke-width="1.5" stroke-linecap="round" stroke-linejoin="round"/>
</svg>
