<svg width="28" height="29" viewBox="0 0 28 29" fill="none" xmlns="http://www.w3.org/2000/svg">
<g clip-path="url(#clip0_365_14057)">
<path d="M21 10.2914C22.933 10.2914 24.5 8.72438 24.5 6.79138C24.5 4.85839 22.933 3.29138 21 3.29138C19.067 3.29138 17.5 4.85839 17.5 6.79138C17.5 8.72438 19.067 10.2914 21 10.2914Z" stroke="white" stroke-width="1.5" stroke-linecap="round" stroke-linejoin="round"/>
<path d="M7 18.458C8.933 18.458 10.5 16.891 10.5 14.958C10.5 13.025 8.933 11.458 7 11.458C5.067 11.458 3.5 13.025 3.5 14.958C3.5 16.891 5.067 18.458 7 18.458Z" stroke="white" stroke-width="1.5" stroke-linecap="round" stroke-linejoin="round"/>
<path d="M21 26.6246C22.933 26.6246 24.5 25.0576 24.5 23.1246C24.5 21.1916 22.933 19.6246 21 19.6246C19.067 19.6246 17.5 21.1916 17.5 23.1246C17.5 25.0576 19.067 26.6246 21 26.6246Z" stroke="white" stroke-width="1.5" stroke-linecap="round" stroke-linejoin="round"/>
<path d="M10.0215 16.7196L17.9898 21.3629" stroke="white" stroke-width="1.5" stroke-linecap="round" stroke-linejoin="round"/>
<path d="M17.9781 8.55286L10.0215 13.1962" stroke="white" stroke-width="1.5" stroke-linecap="round" stroke-linejoin="round"/>
</g>
<defs>
<clipPath id="clip0_365_14057">
<rect width="28" height="28" fill="white" transform="translate(0 0.958008)"/>
</clipPath>
</defs>
</svg>
