<svg width="36" height="37" viewBox="0 0 36 37" fill="none" xmlns="http://www.w3.org/2000/svg">
<path d="M31.5 24.5678V12.5678C31.4995 12.0418 31.3606 11.5251 31.0973 11.0696C30.834 10.6141 30.4556 10.2359 30 9.97285L19.5 3.97285C19.0439 3.70954 18.5266 3.57092 18 3.57092C17.4734 3.57092 16.9561 3.70954 16.5 3.97285L6 9.97285C5.54439 10.2359 5.16597 10.6141 4.90269 11.0696C4.63941 11.5251 4.50054 12.0418 4.5 12.5678V24.5678C4.50054 25.0939 4.63941 25.6106 4.90269 26.0661C5.16597 26.5216 5.54439 26.8998 6 27.1628L16.5 33.1628C16.9561 33.4262 17.4734 33.5648 18 33.5648C18.5266 33.5648 19.0439 33.4262 19.5 33.1628L30 27.1628C30.4556 26.8998 30.834 26.5216 31.0973 26.0661C31.3606 25.6106 31.4995 25.0939 31.5 24.5678Z" stroke="#E08BFE" stroke-width="2" stroke-linecap="round" stroke-linejoin="round"/>
<path d="M4.93359 11.0679L17.9986 18.5679L31.0636 11.0679" stroke="#E08BFE" stroke-width="2" stroke-linecap="round" stroke-linejoin="round"/>
<path d="M18 33.5679V18.5679" stroke="#E08BFE" stroke-width="2" stroke-linecap="round" stroke-linejoin="round"/>
</svg>
