<svg width="285" height="114" viewBox="0 0 285 114" fill="none" xmlns="http://www.w3.org/2000/svg">
<g filter="url(#filter0_d_8_7158)">
<path d="M9.83092 43.2487C9.7012 38.5883 11.2875 34.2215 15.2715 33.3239C17.8698 32.7392 20.4566 34.9681 21.0105 38.2883L17.3854 38.9639C17.1271 37.6828 16.3941 36.8708 15.3241 37.1711C13.6644 37.6369 13.0717 39.9072 13.1294 42.746C13.1863 45.5461 13.8448 47.3839 15.4691 47.2689C16.5359 47.1931 17.5186 46.0827 17.6917 44.5499C17.6917 44.5499 20.528 44.3156 21.172 44.2581C21.172 47.7233 18.5827 50.883 15.5179 50.883C12.0961 50.883 9.95827 47.782 9.83092 43.2487ZM34.9468 39.136C34.6474 32.3772 36.2999 26.0842 40.5693 24.4556C45.0158 22.7597 48.1991 28.9059 48.3339 36.6664C48.4962 46.0988 45.6629 50.883 41.4146 50.883C37.6127 50.883 35.2527 46.048 34.9468 39.136ZM39.1697 38.6968C39.3088 42.8276 40.1172 45.8424 41.4719 45.7103C42.9698 45.5624 43.7616 41.9333 43.6403 37.1807C43.5157 32.3011 42.5244 29.1578 41.0037 30.0561C39.9263 30.6925 39.0115 34.0009 39.1697 38.6968ZM21.8217 41.0114C21.6153 35.1356 23.4366 30.2064 26.9281 29.0356C30.8293 27.7246 33.6579 32.6804 33.7789 39.0534C33.9159 46.3174 31.7228 50.8825 27.5344 50.8825C24.109 50.8825 22.0262 46.7952 21.8217 41.0114ZM25.431 40.3775C25.5352 43.9434 26.3127 46.5607 27.6218 46.4508C29.0149 46.3339 29.8457 43.3722 29.7566 39.51C29.6656 35.5734 28.689 32.8929 27.2788 33.3581C26.3334 33.6705 25.3144 36.3381 25.431 40.3775ZM54.8719 24.8102L50.0661 23.1971V50.6009H61.0246V45.6738L54.8719 45.2267V24.8102ZM82.8634 44.1851L84.9728 50.6009H81.5703L79.6906 44.5332L78.348 44.3786V50.6009H74.353V31.256L80.756 33.4083C83.3398 34.276 84.855 37.0052 84.855 39.9106C84.855 42.5789 83.8064 43.7767 82.8634 44.1851ZM81.763 39.2598C81.763 38.0268 81.132 37.1287 80.2294 36.8895L78.348 36.3907V40.586L80.2294 40.9375C81.132 41.1056 81.763 40.4936 81.763 39.2598ZM50.0661 58.3407L53.4109 58.1177L53.4136 78.9587L57.9887 77.4339V57.7914L60.9928 57.5443V52.6377H50.0661V58.3407ZM62.3926 75.967L72.9618 72.445V68.347L66.7565 69.9772V65.6715L72.2256 64.5819V60.4026L66.7565 61.1086V57.2019L72.9618 56.7663V52.6377H62.3926V75.967ZM82.8838 62.7586L84.9728 68.4471L81.5562 69.5849L79.6984 64.172L78.3535 64.4661V70.6508L74.353 71.9827V52.6377H80.7694C83.3622 52.6377 84.8852 54.87 84.8852 57.791C84.8852 60.4739 83.8312 62.0316 82.8838 62.7586ZM81.7779 58.1777C81.7779 56.9378 81.1453 56.2491 80.2396 56.3129L78.3535 56.4455V60.6579L80.2396 60.3787C81.1453 60.2447 81.7779 59.4172 81.7779 58.1777ZM31.1562 52.6377L35.6826 76.795L31.4706 75.3259L30.9098 71.6921L27.1166 70.6119L26.6322 73.6712L23.1625 72.475L26.7825 52.6377H31.1562ZM30.2458 66.9788L28.9025 58.8052L27.6623 66.3911L30.2458 66.9788ZM15.6696 60.7929L14.0812 52.6377H10.2V67.9942L12.9112 68.9419V59.2324L14.9675 69.6471L16.1351 70.0525L18.784 60.0967V70.9702L22.3407 72.2043V52.6377H17.7287L15.6696 60.7929ZM90.3151 44.1786V60.6195C90.3151 68.9196 89.0545 71.3387 81.4443 74.6541C78.8033 75.7966 74.8141 77.7769 64.6225 81.6351C60.1357 83.3356 53.3877 85.6082 47.4923 85.6082C41.6267 85.6082 34.8805 83.3356 30.3782 81.6351C20.1995 77.7769 16.2112 75.7966 13.5719 74.6541C5.96127 71.3388 4.68506 68.9196 4.68506 60.6195V44.1786C4.68506 35.233 6.82563 31.6838 14.3196 28.2517C15.8588 27.5484 17.6332 26.668 27.3425 23.1039C38.4731 19.0129 44.0461 18 47.4923 18C50.9538 18 56.5264 19.0129 67.6717 23.1039C77.3814 26.668 79.1556 27.5484 80.6956 28.2517C88.1896 31.6838 90.3151 35.233 90.3151 44.1786ZM87.9251 43.0788C87.9251 34.9255 84.2593 32.181 79.0093 29.9967C77.1609 29.22 76.3972 28.7214 67.0858 25.2741C59.4309 22.4302 52.4207 20.304 47.4923 20.304C42.5941 20.304 35.5845 22.4302 27.9139 25.2741C18.6172 28.7214 17.8537 29.22 15.9918 29.9967C10.7553 32.181 7.08972 34.9255 7.08972 43.0788V61.2495C7.08972 67.5547 8.54155 69.9607 13.7477 72.2921C18.1019 74.2283 18.5433 74.4341 27.5482 77.968C33.2375 80.197 40.8195 83.1451 47.4923 83.1451C54.1953 83.1451 61.7624 80.1971 67.4528 77.968C76.4714 74.4341 76.9121 74.2283 81.2666 72.2921C86.4731 69.9607 87.9251 67.5547 87.9251 61.2495V43.0788ZM40.1833 59.909C40.1145 58.5399 41.1101 57.6094 42.0882 57.7136C42.8126 57.801 43.7592 58.5737 43.6283 60.4374L48.4014 60.9042C48.6551 56.0819 46.6217 52.4528 42.2467 52.3781C38.8559 52.3341 35.5808 55.2534 35.6846 59.6529C35.8547 67.5334 44.447 66.2771 44.5082 72.8175C44.5152 73.7982 43.9668 74.7918 42.9592 74.6906C41.6905 74.4494 40.736 73.5694 40.6509 70.8754L36.1855 69.7807C36.1408 73.899 37.6273 78.2498 41.9862 79.1934C46.2218 80.1227 50.1061 76.703 49.1865 70.8233C48.1055 63.9858 40.378 63.5767 40.1833 59.909ZM62.3958 50.6009H72.9618V46.4667L66.7565 46.0451V41.8258L71.905 42.519V38.3217L66.7565 37.2654V33.3102L72.9618 34.9569V30.7796L62.3926 27.272L62.3958 50.6009Z" fill="white"/>
<circle cx="121.815" cy="51.8041" r="3.5" fill="white"/>
<g filter="url(#filter1_d_8_7158)">
<path d="M169.214 34.6669V68.9414H159.616V42.1583H153.315V34.6669H169.214Z" fill="white"/>
<path d="M182.799 42.3542H172.377V34.6669H202.769V42.3542H192.396V68.9414H182.799V42.3542Z" fill="white"/>
<path d="M236.493 68.9414L236.396 50.7759L227.672 65.5629H223.406L214.73 51.2655V68.9414H205.86V34.6669H213.76L225.684 54.4482L237.317 34.6669H245.218L245.315 68.9414H236.493Z" fill="white"/>
</g>
</g>
<defs>
<filter id="filter0_d_8_7158" x="0.685059" y="18" width="248.63" height="75.6082" filterUnits="userSpaceOnUse" color-interpolation-filters="sRGB">
<feFlood flood-opacity="0" result="BackgroundImageFix"/>
<feColorMatrix in="SourceAlpha" type="matrix" values="0 0 0 0 0 0 0 0 0 0 0 0 0 0 0 0 0 0 127 0" result="hardAlpha"/>
<feOffset dy="4"/>
<feGaussianBlur stdDeviation="2"/>
<feComposite in2="hardAlpha" operator="out"/>
<feColorMatrix type="matrix" values="0 0 0 0 0 0 0 0 0 0 0 0 0 0 0 0 0 0 0.14 0"/>
<feBlend mode="normal" in2="BackgroundImageFix" result="effect1_dropShadow_8_7158"/>
<feBlend mode="normal" in="SourceGraphic" in2="effect1_dropShadow_8_7158" result="shape"/>
</filter>
<filter id="filter1_d_8_7158" x="114.023" y="0.61384" width="170.584" height="112.858" filterUnits="userSpaceOnUse" color-interpolation-filters="sRGB">
<feFlood flood-opacity="0" result="BackgroundImageFix"/>
<feColorMatrix in="SourceAlpha" type="matrix" values="0 0 0 0 0 0 0 0 0 0 0 0 0 0 0 0 0 0 127 0" result="hardAlpha"/>
<feOffset dy="5.23893"/>
<feGaussianBlur stdDeviation="19.646"/>
<feColorMatrix type="matrix" values="0 0 0 0 0 0 0 0 0 0 0 0 0 0 0 0 0 0 0.15 0"/>
<feBlend mode="normal" in2="BackgroundImageFix" result="effect1_dropShadow_8_7158"/>
<feBlend mode="normal" in="SourceGraphic" in2="effect1_dropShadow_8_7158" result="shape"/>
</filter>
</defs>
</svg>
